0
SECTION
2
HEADER
9
$INSUNITS
70
4
9
$ACADVER
1
AC1014
9
$HANDSEED
5
FFFF
0
ENDSEC
0
SECTION
2
TABLES
0
TABLE
2
VPORT
5
8
100
AcDbSymbolTable
0
ENDTAB
0
TABLE
2
LTYPE
5
5
100
AcDbSymbolTable
0
LTYPE
5
14
100
AcDbSymbolTableRecord
100
AcDbLinetypeTableRecord
2
BYBLOCK
70
0
0
LTYPE
5
15
100
AcDbSymbolTableRecord
100
AcDbLinetypeTableRecord
2
BYLAYER
70
0
0
ENDTAB
0
TABLE
2
LAYER
5
2
100
AcDbSymbolTable
70
2
0
LAYER
5
50
100
AcDbSymbolTableRecord
100
AcDbLayerTableRecord
2
0
70
0
6
CONTINUOUS
0
ENDTAB
0
TABLE
2
STYLE
5
3
100
AcDbSymbolTable
70
1
0
STYLE
5
11
100
AcDbSymbolTableRecord
100
AcDbTextStyleTableRecord
2
STANDARD
70
0
0
ENDTAB
0
TABLE
2
VIEW
5
6
100
AcDbSymbolTable
70
0
0
ENDTAB
0
TABLE
2
UCS
5
7
100
AcDbSymbolTable
70
0
0
ENDTAB
0
TABLE
2
APPID
5
9
100
AcDbSymbolTable
70
2
0
APPID
5
12
100
AcDbSymbolTableRecord
100
AcDbRegAppTableRecord
2
ACAD
70
0
0
ENDTAB
0
TABLE
2
DIMSTYLE
5
A
100
AcDbSymbolTable
70
1
0
ENDTAB
0
TABLE
2
BLOCK_RECORD
5
1
100
AcDbSymbolTable
70
1
0
BLOCK_RECORD
5
1F
100
AcDbSymbolTableRecord
100
AcDbBlockTableRecord
2
*MODEL_SPACE
0
BLOCK_RECORD
5
1B
100
AcDbSymbolTableRecord
100
AcDbBlockTableRecord
2
*PAPER_SPACE
0
ENDTAB
0
ENDSEC
0
SECTION
2
BLOCKS
0
BLOCK
5
20
100
AcDbEntity
100
AcDbBlockBegin
2
*MODEL_SPACE
0
ENDBLK
5
21
100
AcDbEntity
100
AcDbBlockEnd
0
BLOCK
5
1C
100
AcDbEntity
100
AcDbBlockBegin
2
*PAPER_SPACE
0
ENDBLK
5
1D
100
AcDbEntity
100
AcDbBlockEnd
0
ENDSEC
0
SECTION
2
ENTITIES
0
LWPOLYLINE
5
100
100
AcDbEntity
8
0
100
AcDbPolyline
90
102
70
1
43
0.0
10
28.988987057567329
20
-33.427803011824125
42
-0.41421356237309764
10
29.488987057567329
20
-32.927803011824118
10
59.70948705756733
20
-32.927803011824125
42
0.41421356237309503
10
60.209487057567316
20
-32.427803011824125
10
60.209487057567316
20
-30.73780301182412
10
61.272884517188899
20
-28.895944583119913
42
-0.76732698797893828
10
61.459487057567316
20
-28.945944583119903
10
61.459487057567316
20
-30.73780301182412
42
0.99999999999999989
10
63.959487057567316
20
-30.73780301182412
10
63.959487057567316
20
-28.945944583119896
42
-0.76732698797898891
10
64.14608959794576
20
-28.895944583119899
10
65.209487057567316
20
-30.73780301182412
10
65.20948705756733
20
-32.427803011824125
42
0.41421356237310542
10
65.709487057567344
20
-32.927803011824118
10
145.67198705756732
20
-32.927803011824125
42
0.41421356237309503
10
146.17198705756732
20
-32.427803011824125
10
146.17198705756732
20
-30.737803011824127
10
147.23538451718889
20
-28.895944583119896
42
-0.76732698797889021
10
147.42198705756732
20
-28.945944583119889
10
147.42198705756732
20
-30.737803011824127
42
0.99999999999999989
10
149.92198705756732
20
-30.737803011824127
10
149.92198705756732
20
-28.945944583119903
42
-0.76732698797889021
10
150.10858959794578
20
-28.895944583119903
10
151.17198705756732
20
-30.737803011824127
10
151.17198705756732
20
-32.427803011824125
42
0.41421356237309503
10
151.67198705756732
20
-32.927803011824118
10
231.15948705756736
20
-32.927803011824125
42
0.41421356237309503
10
231.65948705756733
20
-32.427803011824125
10
231.65948705756733
20
-30.737803011824127
10
232.7228845171889
20
-28.895944583119977
42
-0.76732698797878929
10
232.90948705756733
20
-28.945944583119992
10
232.90948705756733
20
-30.737803011824127
42
0.99999999999999989
10
235.40948705756733
20
-30.73780301182412
10
235.40948705756733
20
-28.94594458311996
42
-0.76732698797885968
10
235.59608959794582
20
-28.895944583119963
10
236.65948705756733
20
-30.737803011824127
10
236.6594870575673
20
-32.427803011824125
42
0.41421356237309503
10
237.1594870575673
20
-32.927803011824118
10
354.98448705756732
20
-32.927803011824125
42
0.41421356237309503
10
355.48448705756732
20
-32.427803011824125
10
355.48448705756732
20
-30.737803011824127
10
356.54788451718895
20
-28.895944583119832
42
-0.76732698797905952
10
356.73448705756732
20
-28.945944583119857
10
356.73448705756732
20
-30.737803011824131
42
0.99999999999999989
10
359.23448705756732
20
-30.737803011824127
10
359.23448705756732
20
-28.945944583119839
42
-0.76732698797923005
10
359.42108959794575
20
-28.895944583119856
10
360.48448705756732
20
-30.737803011824131
10
360.48448705756726
20
-32.427803011824125
42
0.41421356237309503
10
360.98448705756721
20
-32.927803011824118
10
376.53148705756746
20
-32.927803011824196
42
-0.41421356237309764
10
377.0314870575674
20
-33.427803011824096
10
377.03148705756746
20
-152.25030301182417
42
-0.4142135623731783
10
376.5314870575674
20
-152.7503030118242
10
341.93448705756737
20
-152.7503030118242
42
0.41421356237309503
10
341.43448705756737
20
-153.2503030118242
10
341.43448705756737
20
-155.00030301182423
10
340.3710895979458
20
-156.84216144052851
42
-0.76732698797909249
10
340.18448705756737
20
-156.7921614405285
10
340.18448705756737
20
-155.00030301182423
42
0.99999999999999989
10
337.68448705756737
20
-155.00030301182423
10
337.68448705756737
20
-156.7921614405285
42
-0.7673269879792145
10
337.49788451718899
20
-156.84216144052849
10
336.43448705756737
20
-155.00030301182423
10
336.43448705756737
20
-153.2503030118242
42
0.41421356237309503
10
335.93448705756742
20
-152.7503030118242
10
246.20948705756729
20
-152.7503030118242
42
0.41421356237309503
10
245.70948705756729
20
-153.2503030118242
10
245.70948705756729
20
-155.00030301182423
10
244.64608959794575
20
-156.84216144052834
42
-0.76732698797902188
10
244.45948705756729
20
-156.79216144052836
10
244.45948705756729
20
-155.00030301182423
42
0.99999999999999989
10
241.95948705756729
20
-155.00030301182423
10
241.95948705756729
20
-156.79216144052839
42
-0.76732698797896093
10
241.7728845171888
20
-156.84216144052837
10
240.70948705756729
20
-155.00030301182423
10
240.70948705756729
20
-153.2503030118242
42
0.41421356237309503
10
240.20948705756726
20
-152.7503030118242
10
222.15098705756742
20
-152.7503030118242
10
219.24698705756737
20
-149.84630301182418
10
179.24698705756737
20
-149.84630301182426
10
179.24698705756731
20
-136.14630301182422
42
0.41421356237309503
10
178.74698705756731
20
-135.64630301182419
10
165.74073705756734
20
-135.64630301182422
42
0.4142135623730846
10
165.24073705756734
20
-136.14630301182419
10
165.24073705756734
20
-149.84630301182423
10
125.24073705756734
20
-149.84630301182423
10
122.33673705756736
20
-152.7503030118242
10
81.187612057567335
20
-152.7503030118242
42
0.41421356237309503
10
80.687612057567321
20
-153.2503030118242
10
80.687612057567321
20
-155.00030301182423
10
79.62421459794578
20
-156.84216144052843
42
-0.76732698797901366
10
79.437612057567321
20
-156.79216144052842
10
79.437612057567321
20
-155.0003030118242
42
0.99999999999999989
10
76.937612057567321
20
-155.0003030118242
10
76.937612057567335
20
-156.79216144052842
42
-0.76732698797907484
10
76.751009517188876
20
-156.84216144052843
10
75.687612057567321
20
-155.0003030118242
10
75.687612057567321
20
-153.2503030118242
42
0.41421356237309503
10
75.187612057567335
20
-152.7503030118242
10
29.488987057567311
20
-152.7503030118242
42
-0.41421356237309503
10
28.988987057567321
20
-152.2503030118242
0
LWPOLYLINE
5
101
100
AcDbEntity
8
0
100
AcDbPolyline
90
8
70
1
43
0.0
10
307.33773705756732
20
-135.84630301182418
10
294.33448705756734
20
-135.84630301182418
42
0.41421356237307422
10
293.83448705756729
20
-136.3463030118242
10
293.83448705756729
20
-149.3463030118242
42
0.4142135623730846
10
294.33448705756734
20
-149.84630301182423
10
307.33773705756732
20
-149.84630301182423
42
0.4142135623730846
10
307.83773705756732
20
-149.34630301182423
10
307.83773705756732
20
-136.3463030118242
42
0.41421356237309503
0
LWPOLYLINE
5
102
100
AcDbEntity
8
0
100
AcDbPolyline
90
8
70
1
43
0.0
10
259.71273705756732
20
-135.84630301182418
10
246.70948705756732
20
-135.84630301182418
42
0.4142135623730846
10
246.20948705756732
20
-136.3463030118242
10
246.20948705756732
20
-149.3463030118242
42
0.41421356237309503
10
246.70948705756732
20
-149.84630301182423
10
259.71273705756732
20
-149.84630301182423
42
0.4142135623730846
10
260.21273705756732
20
-149.34630301182423
10
260.21273705756732
20
-136.3463030118242
42
0.41421356237309503
0
LWPOLYLINE
5
103
100
AcDbEntity
8
0
100
AcDbPolyline
90
8
70
1
43
0.0
10
37.156237057567324
20
-149.84630301182423
10
50.159487057567333
20
-149.84630301182423
42
0.414213562373069
10
50.659487057567333
20
-149.34630301182423
10
50.659487057567326
20
-136.3463030118242
42
0.41421356237307422
10
50.159487057567333
20
-135.84630301182418
10
37.156237057567331
20
-135.8463030118242
42
0.4142135623730846
10
36.656237057567331
20
-136.3463030118242
10
36.656237057567324
20
-149.3463030118242
42
0.41421356237309503
0
LWPOLYLINE
5
104
100
AcDbEntity
8
0
100
AcDbPolyline
90
8
70
1
43
0.0
10
84.781237057567324
20
-149.84630301182423
10
97.784487057567318
20
-149.84630301182423
42
0.41421356237304302
10
98.284487057567333
20
-149.34630301182423
10
98.284487057567304
20
-136.3463030118242
42
0.4142135623730846
10
97.784487057567318
20
-135.84630301182418
10
84.781237057567324
20
-135.8463030118242
42
0.4142135623730846
10
84.281237057567324
20
-136.3463030118242
10
84.281237057567338
20
-149.3463030118242
42
0.41421356237309503
0
LWPOLYLINE
5
105
100
AcDbEntity
8
0
100
AcDbPolyline
90
4
70
1
43
0.0
10
158.24073705756729
20
-140.99630301182424
42
-0.99999999999999989
10
158.24073705756743
20
-144.99630301182421
10
125.59698705756739
20
-144.99630301182421
42
-0.99999999999999989
10
125.59698705756729
20
-140.99630301182424
0
LWPOLYLINE
5
106
100
AcDbEntity
8
0
100
AcDbPolyline
90
4
70
1
43
0.0
10
218.89723705756737
20
-140.99630301182424
42
-0.99999999999999989
10
218.89723705756728
20
-144.99630301182421
10
186.24698705756725
20
-144.99630301182424
42
-0.99999999999999989
10
186.2469870575674
20
-140.99630301182424
0
LWPOLYLINE
5
107
100
AcDbEntity
8
0
100
AcDbPolyline
90
4
70
1
43
0.0
10
363.45948705756734
20
-97.246303011824168
10
333.45948705756734
20
-97.246303011824168
42
0.99999999999999989
10
333.45948705756734
20
-112.24630301182418
10
363.45948705756734
20
-112.24630301182417
42
0.99999999999999989
0
LWPOLYLINE
5
108
100
AcDbEntity
8
0
100
AcDbPolyline
90
10
70
1
43
0.0
10
262.20948707246851
20
-132.29630302672535
10
262.20948707246851
20
-124.79630301182422
42
0.41421357110198487
10
261.70948705756734
20
-124.29630301182421
42
0.41421356237309503
10
261.20948705756734
20
-124.79630301182422
10
261.20948705756734
20
-131.29630301182419
42
-0.41421356237310542
10
260.70948705756734
20
-131.79630301182422
10
254.20948705756734
20
-131.79630301182419
42
0.41421357110197449
10
253.70948705756734
20
-132.29630302672533
42
0.41421356237309503
10
254.20948705756734
20
-132.79630302672535
10
261.70948707246851
20
-132.79630302672533
42
0.41421356237307422
0
LWPOLYLINE
5
109
100
AcDbEntity
8
0
100
AcDbPolyline
90
8
70
1
43
0.0
10
341.45948705756734
20
-117.29630301182418
42
-0.41421356237312623
10
341.95948705756734
20
-116.79630301182416
10
354.95948705756734
20
-116.79630301182419
42
-0.4142135623730222
10
355.45948705756729
20
-117.29630301182418
10
355.45948705756729
20
-130.29630301182419
42
-0.41421356237311585
10
354.95948705756734
20
-130.79630301182419
10
341.95948705756734
20
-130.79630301182422
42
-0.41421356237312623
10
341.45948705756734
20
-130.29630301182419
0
LWPOLYLINE
5
110
100
AcDbEntity
8
0
100
AcDbPolyline
90
8
70
1
43
0.0
10
189.05948705756737
20
-117.29630301182418
42
-0.41421356237310542
10
189.55948705756731
20
-116.79630301182416
10
202.55948705756734
20
-116.79630301182416
42
-0.41421356237313667
10
203.05948705756734
20
-117.29630301182418
10
203.05948705756734
20
-130.29630301182419
42
-0.41421356237312623
10
202.55948705756734
20
-130.79630301182419
10
189.55948705756731
20
-130.79630301182422
42
-0.41421356237310542
10
189.05948705756731
20
-130.29630301182419
0
LWPOLYLINE
5
111
100
AcDbEntity
8
0
100
AcDbPolyline
90
8
70
1
43
0.0
10
73.971987057567333
20
-135.84630301182418
10
58.590737057567324
20
-135.84630301182418
42
0.41421356237306384
10
58.090737057567317
20
-136.3463030118242
10
58.090737057567324
20
-149.3463030118242
42
0.414213562373069
10
58.590737057567324
20
-149.84630301182418
10
73.971987057567333
20
-149.84630301182423
42
0.414213562373069
10
74.471987057567318
20
-149.34630301182423
10
74.471987057567318
20
-136.3463030118242
42
0.41421356237307422
0
LWPOLYLINE
5
112
100
AcDbEntity
8
0
100
AcDbPolyline
90
8
70
1
43
0.0
10
270.02198705756734
20
-136.3463030118242
42
-0.41421356237309503
10
270.52198705756734
20
-135.8463030118242
10
285.90323705756737
20
-135.8463030118242
42
-0.41421356237309503
10
286.40323705756737
20
-136.3463030118242
10
286.40323705756737
20
-149.34630301182423
42
-0.4142135623730846
10
285.90323705756737
20
-149.84630301182423
10
270.52198705756734
20
-149.84630301182423
42
-0.41421356237309503
10
270.02198705756734
20
-149.3463030118242
0
LWPOLYLINE
5
113
100
AcDbEntity
8
0
100
AcDbPolyline
90
8
70
1
43
0.0
10
322.40948705756739
20
-136.3463030118242
42
-0.41421356237313667
10
322.90948705756739
20
-135.8463030118242
10
335.90948705756739
20
-135.84630301182423
42
-0.41421356237313667
10
336.40948705756739
20
-136.3463030118242
10
336.40948705756739
20
-149.34630301182423
42
-0.41421356237312623
10
335.90948705756739
20
-149.84630301182423
10
322.90948705756739
20
-149.84630301182418
42
-0.41421356237313667
10
322.40948705756739
20
-149.3463030118242
0
LWPOLYLINE
5
114
100
AcDbEntity
8
0
100
AcDbPolyline
90
8
70
1
43
0.0
10
360.50948705756741
20
-79.19630301182417
42
-0.41421356237311585
10
361.00948705756736
20
-78.69630301182417
10
374.0094870575673
20
-78.69630301182417
42
-0.4142135623730222
10
374.5094870575673
20
-79.19630301182417
10
374.5094870575673
20
-92.196303011824185
42
-0.4142135623730534
10
374.0094870575673
20
-92.696303011824185
10
361.00948705756736
20
-92.69630301182417
42
-0.4142135623730222
10
360.50948705756741
20
-92.196303011824185
0
LWPOLYLINE
5
115
100
AcDbEntity
8
0
100
AcDbPolyline
90
8
70
1
43
0.0
10
298.59698705756733
20
-36.333803011824138
42
-0.41421356237308204
10
299.09698705756733
20
-35.833803011824138
10
312.09698705756739
20
-35.833803011824116
42
-0.41421356237310281
10
312.59698705756739
20
-36.333803011824138
10
312.59698705756733
20
-49.333803011824145
42
-0.41421356237301699
10
312.09698705756739
20
-49.833803011824138
10
299.09698705756733
20
-49.833803011824145
42
-0.41421356237313667
10
298.59698705756733
20
-49.333803011824138
0
LWPOLYLINE
5
116
100
AcDbEntity
8
0
100
AcDbPolyline
90
8
70
1
43
0.0
10
31.89698705756733
20
-36.333803011824138
42
-0.41421356237309503
10
32.39698705756733
20
-35.833803011824138
10
45.39698705756733
20
-35.833803011824138
42
-0.41421356237309503
10
45.896987057567323
20
-36.333803011824138
10
45.896987057567323
20
-49.333803011824145
42
-0.41421356237310025
10
45.39698705756733
20
-49.833803011824138
10
32.396987057567337
20
-49.833803011824131
42
-0.41421356237310281
10
31.89698705756733
20
-49.333803011824138
0
LWPOLYLINE
5
117
100
AcDbEntity
8
0
100
AcDbPolyline
90
8
70
1
43
0.0
10
74.759487057567341
20
-36.333803011824138
42
-0.41421356237309764
10
75.259487057567327
20
-35.833803011824138
10
88.259487057567327
20
-35.833803011824145
42
-0.41421356237310802
10
88.759487057567341
20
-36.333803011824138
10
88.759487057567341
20
-49.333803011824145
42
-0.41421356237310025
10
88.259487057567327
20
-49.833803011824138
10
75.259487057567327
20
-49.833803011824138
42
-0.41421356237310542
10
74.759487057567327
20
-49.333803011824138
0
LWPOLYLINE
5
118
100
AcDbEntity
8
0
100
AcDbPolyline
90
8
70
1
43
0.0
10
250.97198705756728
20
-79.19630301182417
42
-0.41421356237307422
10
251.47198705756733
20
-78.69630301182417
10
264.47198705756733
20
-78.696303011824185
42
-0.41421356237312101
10
264.97198705756733
20
-79.19630301182417
10
264.97198705756733
20
-92.196303011824185
42
-0.41421356237301177
10
264.47198705756733
20
-92.696303011824185
10
251.47198705756733
20
-92.696303011824185
42
-0.41421356237309503
10
250.97198705756733
20
-92.196303011824185
0
LWPOLYLINE
5
119
100
AcDbEntity
8
0
100
AcDbPolyline
90
8
70
1
43
0.0
10
212.87198705756737
20
-79.19630301182417
42
-0.4142135623730222
10
213.37198705756734
20
-78.69630301182417
10
226.37198705756734
20
-78.69630301182417
42
-0.41421356237313145
10
226.87198705756737
20
-79.19630301182417
10
226.87198705756737
20
-92.196303011824185
42
-0.41421356237304302
10
226.37198705756734
20
-92.696303011824185
10
213.37198705756734
20
-92.69630301182417
42
-0.4142135623730846
10
212.87198705756734
20
-92.196303011824185
0
LWPOLYLINE
5
120
100
AcDbEntity
8
0
100
AcDbPolyline
90
8
70
1
43
0.0
10
117.62198705756731
20
-79.19630301182417
10
117.62198705756731
20
-92.196303011824185
42
0.41421356237307422
10
118.12198705756731
20
-92.69630301182417
10
131.12198705756731
20
-92.696303011824185
42
0.41421356237307422
10
131.62198705756734
20
-92.196303011824185
10
131.62198705756734
20
-79.19630301182417
42
0.41421356237309503
10
131.12198705756731
20
-78.696303011824156
10
118.12198705756731
20
-78.69630301182417
42
0.41421356237308982
0
LWPOLYLINE
5
121
100
AcDbEntity
8
0
100
AcDbPolyline
90
8
70
1
43
0.0
10
140.64698705756734
20
-59.646303011824131
42
-0.41421356237309503
10
141.14698705756734
20
-60.146303011824138
10
141.14698705756734
20
-73.146303011824145
42
-0.41421356237309503
10
140.64698705756734
20
-73.646303011824159
10
127.64698705756732
20
-73.646303011824173
42
-0.41421356237310025
10
127.14698705756732
20
-73.146303011824159
10
127.14698705756732
20
-60.146303011824145
42
-0.41421356237309503
10
127.64698705756732
20
-59.646303011824138
0
LWPOLYLINE
5
122
100
AcDbEntity
8
0
100
AcDbPolyline
90
8
70
1
43
0.0
10
136.67198705756732
20
-36.333803011824138
42
-0.41421356237310802
10
137.17198705756732
20
-35.833803011824138
10
150.17198705756732
20
-35.833803011824131
42
-0.41421356237309503
10
150.67198705756735
20
-36.333803011824138
10
150.67198705756735
20
-49.333803011824145
42
-0.41421356237310025
10
150.17198705756732
20
-49.833803011824138
10
137.17198705756732
20
-49.833803011824152
42
-0.41421356237310025
10
136.67198705756732
20
-49.333803011824138
0
LWPOLYLINE
5
123
100
AcDbEntity
8
0
100
AcDbPolyline
90
8
70
1
43
0.0
10
222.39698705756737
20
-60.146303011824138
42
-0.4142135623730222
10
222.89698705756734
20
-59.646303011824138
10
235.89698705756734
20
-59.646303011824138
42
-0.41421356237313145
10
236.39698705756734
20
-60.146303011824138
10
236.39698705756734
20
-73.146303011824145
42
-0.41421356237311063
10
235.89698705756734
20
-73.646303011824159
10
222.89698705756734
20
-73.646303011824145
42
-0.41421356237312623
10
222.39698705756734
20
-73.146303011824159
0
LWPOLYLINE
5
124
100
AcDbEntity
8
0
100
AcDbPolyline
90
8
70
1
43
0.0
10
217.6344870575673
20
-36.333803011824138
42
-0.41421356237308204
10
218.1344870575673
20
-35.833803011824138
10
231.1344870575673
20
-35.833803011824116
42
-0.41421356237310281
10
231.63448705756733
20
-36.333803011824138
10
231.6344870575673
20
-49.333803011824145
42
-0.41421356237301699
10
231.1344870575673
20
-49.833803011824138
10
218.1344870575673
20
-49.833803011824145
42
-0.41421356237313667
10
217.6344870575673
20
-49.333803011824138
0
LWPOLYLINE
5
125
100
AcDbEntity
8
0
100
AcDbPolyline
90
8
70
1
43
0.0
10
146.19698705756733
20
-60.146303011824138
42
-0.41421356237308982
10
146.69698705756733
20
-59.646303011824138
10
159.6969870575673
20
-59.646303011824138
42
-0.41421356237313145
10
160.1969870575673
20
-60.146303011824138
10
160.1969870575673
20
-73.146303011824145
42
-0.41421356237312101
10
159.6969870575673
20
-73.646303011824159
10
146.69698705756733
20
-73.646303011824173
42
-0.41421356237310025
10
146.19698705756733
20
-73.146303011824159
0
LWPOLYLINE
5
126
100
AcDbEntity
8
0
100
AcDbPolyline
90
8
70
1
43
0.0
10
108.0969870575673
20
-60.146303011824138
42
-0.41421356237308982
10
108.5969870575673
20
-59.646303011824138
10
121.59698705756732
20
-59.646303011824131
42
-0.41421356237309503
10
122.09698705756733
20
-60.146303011824138
10
122.09698705756733
20
-73.146303011824145
42
-0.41421356237309503
10
121.59698705756732
20
-73.646303011824159
10
108.5969870575673
20
-73.646303011824145
42
-0.41421356237310542
10
108.0969870575673
20
-73.146303011824159
0
LWPOLYLINE
5
127
100
AcDbEntity
8
0
100
AcDbPolyline
90
8
70
1
43
0.0
10
260.49698705756731
20
-60.146303011824138
42
-0.41421356237307422
10
260.99698705756731
20
-59.646303011824138
10
273.99698705756737
20
-59.646303011824159
42
-0.41421356237312101
10
274.49698705756737
20
-60.146303011824138
10
274.49698705756737
20
-73.146303011824145
42
-0.41421356237310025
10
273.99698705756737
20
-73.646303011824159
10
260.99698705756731
20
-73.646303011824159
42
-0.41421356237313667
10
260.49698705756731
20
-73.146303011824159
0
LWPOLYLINE
5
128
100
AcDbEntity
8
0
100
AcDbPolyline
90
8
70
1
43
0.0
10
112.85948705756731
20
-36.333803011824138
10
112.85948705756731
20
-49.333803011824138
42
0.41421356237310025
10
113.35948705756732
20
-49.833803011824145
10
126.35948705756732
20
-49.833803011824138
42
0.41421356237310025
10
126.85948705756732
20
-49.333803011824145
10
126.85948705756732
20
-36.333803011824138
42
0.41421356237309503
10
126.35948705756732
20
-35.833803011824131
10
113.35948705756732
20
-35.833803011824138
42
0.41421356237311063
0
LWPOLYLINE
5
129
100
AcDbEntity
8
0
100
AcDbPolyline
90
8
70
1
43
0.0
10
174.77198705756734
20
-36.333803011824138
42
-0.41421356237308204
10
175.27198705756734
20
-35.833803011824138
10
188.27198705756732
20
-35.833803011824131
42
-0.41421356237313406
10
188.77198705756734
20
-36.333803011824138
10
188.77198705756737
20
-49.333803011824145
42
-0.414213562373069
10
188.27198705756732
20
-49.833803011824138
10
175.27198705756734
20
-49.833803011824145
42
-0.41421356237313667
10
174.77198705756734
20
-49.333803011824138
0
LWPOLYLINE
5
130
100
AcDbEntity
8
0
100
AcDbPolyline
90
8
70
1
43
0.0
10
250.18448705756731
20
-35.833803011824116
42
-0.41421356237310281
10
250.68448705756734
20
-36.333803011824138
10
250.68448705756731
20
-49.333803011824145
42
-0.41421356237301699
10
250.18448705756731
20
-49.833803011824138
10
237.18448705756731
20
-49.833803011824145
42
-0.41421356237313667
10
236.68448705756731
20
-49.333803011824138
10
236.68448705756731
20
-36.333803011824138
42
-0.4142135623730846
10
237.18448705756731
20
-35.833803011824138
0
LWPOLYLINE
5
131
100
AcDbEntity
8
0
100
AcDbPolyline
90
8
70
1
43
0.0
10
102.54698705756735
20
-59.646303011824138
42
-0.41421356237308982
10
103.04698705756732
20
-60.146303011824138
10
103.04698705756732
20
-73.146303011824145
42
-0.41421356237306384
10
102.54698705756732
20
-73.646303011824159
10
89.546987057567335
20
-73.646303011824145
42
-0.41421356237310542
10
89.046987057567321
20
-73.146303011824159
10
89.046987057567321
20
-60.146303011824145
42
-0.41421356237309503
10
89.546987057567335
20
-59.646303011824138
0
LWPOLYLINE
5
132
100
AcDbEntity
8
0
100
AcDbPolyline
90
8
70
1
43
0.0
10
69.996987057567324
20
-60.146303011824138
42
-0.41421356237309503
10
70.496987057567324
20
-59.646303011824138
10
83.496987057567338
20
-59.646303011824138
42
-0.41421356237308982
10
83.996987057567338
20
-60.146303011824138
10
83.996987057567338
20
-73.146303011824145
42
-0.41421356237309503
10
83.496987057567338
20
-73.646303011824159
10
70.496987057567324
20
-73.646303011824145
42
-0.41421356237310542
10
69.996987057567324
20
-73.146303011824159
0
LWPOLYLINE
5
133
100
AcDbEntity
8
0
100
AcDbPolyline
90
8
70
1
43
0.0
10
165.24698705756734
20
-60.146303011824145
10
165.24698705756734
20
-73.146303011824159
42
0.41421356237313667
10
165.74698705756734
20
-73.646303011824159
10
178.74698705756731
20
-73.646303011824159
42
0.41421356237311063
10
179.24698705756731
20
-73.146303011824145
10
179.24698705756731
20
-60.146303011824138
42
0.41421356237313145
10
178.74698705756731
20
-59.646303011824138
10
165.74698705756734
20
-59.646303011824138
42
0.41421356237307944
0
LWPOLYLINE
5
134
100
AcDbEntity
8
0
100
AcDbPolyline
90
8
70
1
43
0.0
10
274.78448705756733
20
-36.333803011824138
42
-0.41421356237308204
10
275.28448705756733
20
-35.833803011824138
10
288.28448705756733
20
-35.833803011824116
42
-0.41421356237310281
10
288.78448705756733
20
-36.333803011824138
10
288.78448705756733
20
-49.333803011824145
42
-0.41421356237301699
10
288.28448705756733
20
-49.833803011824138
10
275.28448705756733
20
-49.833803011824145
42
-0.41421356237313667
10
274.78448705756733
20
-49.333803011824138
0
LWPOLYLINE
5
135
100
AcDbEntity
8
0
100
AcDbPolyline
90
8
70
1
43
0.0
10
322.40948705756745
20
-60.146303011824138
42
-0.41421356237319906
10
322.90948705756739
20
-59.646303011824138
10
335.90948705756739
20
-59.646303011824166
42
-0.41421356237313667
10
336.40948705756739
20
-60.146303011824138
10
336.40948705756733
20
-73.146303011824145
42
-0.4142135623731939
10
335.90948705756739
20
-73.646303011824159
10
322.90948705756739
20
-73.646303011824131
42
-0.41421356237313667
10
322.40948705756739
20
-73.146303011824159
0
LWPOLYLINE
5
136
100
AcDbEntity
8
0
100
AcDbPolyline
90
8
70
1
43
0.0
10
31.89698705756733
20
-60.146303011824138
42
-0.41421356237309503
10
32.39698705756733
20
-59.646303011824138
10
45.39698705756733
20
-59.646303011824138
42
-0.41421356237309503
10
45.896987057567323
20
-60.146303011824138
10
45.89698705756733
20
-73.146303011824145
42
-0.41421356237307944
10
45.39698705756733
20
-73.646303011824159
10
32.396987057567337
20
-73.646303011824145
42
-0.41421356237310281
10
31.89698705756733
20
-73.146303011824159
0
LWPOLYLINE
5
137
100
AcDbEntity
8
0
100
AcDbPolyline
90
8
70
1
43
0.0
10
79.52198705756733
20
-79.19630301182417
42
-0.41421356237309503
10
80.02198705756733
20
-78.69630301182417
10
93.021987057567344
20
-78.69630301182417
42
-0.41421356237308982
10
93.521987057567344
20
-79.19630301182417
10
93.521987057567344
20
-92.196303011824185
42
-0.41421356237307422
10
93.021987057567344
20
-92.696303011824185
10
80.02198705756733
20
-92.69630301182417
42
-0.41421356237307422
10
79.52198705756733
20
-92.196303011824185
0
LWPOLYLINE
5
138
100
AcDbEntity
8
0
100
AcDbPolyline
90
8
70
1
43
0.0
10
354.95948705756734
20
-35.833803011824145
42
-0.4142135623730222
10
355.45948705756729
20
-36.333803011824138
10
355.45948705756729
20
-49.333803011824145
42
-0.41421356237310025
10
354.95948705756734
20
-49.833803011824138
10
341.95948705756734
20
-49.833803011824131
42
-0.41421356237310542
10
341.45948705756734
20
-49.333803011824138
10
341.45948705756734
20
-36.333803011824138
42
-0.41421356237311324
10
341.95948705756734
20
-35.833803011824138
0
LWPOLYLINE
5
139
100
AcDbEntity
8
0
100
AcDbPolyline
90
8
70
1
43
0.0
10
360.50948705756741
20
-60.146303011824138
42
-0.41421356237311585
10
361.00948705756736
20
-59.646303011824138
10
374.0094870575673
20
-59.646303011824145
42
-0.4142135623730222
10
374.5094870575673
20
-60.146303011824138
10
374.5094870575673
20
-73.146303011824145
42
-0.41421356237311063
10
374.0094870575673
20
-73.646303011824159
10
361.00948705756736
20
-73.646303011824145
42
-0.4142135623730222
10
360.50948705756741
20
-73.146303011824159
0
LWPOLYLINE
5
140
100
AcDbEntity
8
0
100
AcDbPolyline
90
8
70
1
43
0.0
10
136.67198705756732
20
-79.19630301182417
42
-0.41421356237308982
10
137.17198705756732
20
-78.69630301182417
10
150.17198705756732
20
-78.696303011824156
42
-0.41421356237309503
10
150.67198705756735
20
-79.19630301182417
10
150.67198705756735
20
-92.196303011824185
42
-0.41421356237307422
10
150.17198705756732
20
-92.696303011824185
10
137.17198705756732
20
-92.696303011824185
42
-0.41421356237307422
10
136.67198705756732
20
-92.196303011824185
0
LWPOLYLINE
5
141
100
AcDbEntity
8
0
100
AcDbPolyline
90
8
70
1
43
0.0
10
360.50948705756741
20
-136.3463030118242
42
-0.41421356237310542
10
361.00948705756736
20
-135.8463030118242
10
374.0094870575673
20
-135.8463030118242
42
-0.4142135623730222
10
374.5094870575673
20
-136.3463030118242
10
374.5094870575673
20
-149.34630301182423
42
-0.41421356237309503
10
374.0094870575673
20
-149.84630301182423
10
361.00948705756736
20
-149.8463030118242
42
-0.4142135623730222
10
360.50948705756741
20
-149.3463030118242
0
LWPOLYLINE
5
142
100
AcDbEntity
8
0
100
AcDbPolyline
90
8
70
1
43
0.0
10
241.44698705756727
20
-60.146303011824138
42
-0.41421356237307422
10
241.94698705756733
20
-59.646303011824138
10
254.94698705756733
20
-59.646303011824159
42
-0.41421356237312101
10
255.44698705756733
20
-60.146303011824138
10
255.44698705756733
20
-73.146303011824145
42
-0.41421356237310025
10
254.94698705756733
20
-73.646303011824159
10
241.94698705756733
20
-73.646303011824159
42
-0.41421356237313667
10
241.4469870575673
20
-73.146303011824159
0
LWPOLYLINE
5
143
100
AcDbEntity
8
0
100
AcDbPolyline
90
8
70
1
43
0.0
10
354.95948705756734
20
-135.8463030118242
42
-0.4142135623730222
10
355.45948705756729
20
-136.3463030118242
10
355.45948705756729
20
-149.34630301182423
42
-0.41421356237309503
10
354.95948705756734
20
-149.84630301182423
10
341.95948705756734
20
-149.8463030118242
42
-0.41421356237310542
10
341.45948705756734
20
-149.3463030118242
10
341.45948705756734
20
-136.3463030118242
42
-0.41421356237309503
10
341.95948705756734
20
-135.8463030118242
0
LWPOLYLINE
5
144
100
AcDbEntity
8
0
100
AcDbPolyline
90
8
70
1
43
0.0
10
193.82198705756736
20
-79.19630301182417
42
-0.4142135623730222
10
194.32198705756733
20
-78.69630301182417
10
207.3219870575673
20
-78.696303011824185
42
-0.41421356237312101
10
207.8219870575673
20
-79.19630301182417
10
207.8219870575673
20
-92.196303011824185
42
-0.41421356237301177
10
207.3219870575673
20
-92.696303011824185
10
194.32198705756733
20
-92.69630301182417
42
-0.4142135623730846
10
193.82198705756733
20
-92.196303011824185
0
LWPOLYLINE
5
145
100
AcDbEntity
8
0
100
AcDbPolyline
90
8
70
1
43
0.0
10
174.77198705756732
20
-79.19630301182417
42
-0.41421356237307422
10
175.27198705756734
20
-78.69630301182417
10
188.27198705756732
20
-78.69630301182417
42
-0.41421356237313145
10
188.77198705756734
20
-79.19630301182417
10
188.77198705756734
20
-92.196303011824185
42
-0.41421356237304302
10
188.27198705756732
20
-92.696303011824185
10
175.27198705756734
20
-92.696303011824185
42
-0.41421356237309503
10
174.77198705756734
20
-92.196303011824185
0
LWPOLYLINE
5
146
100
AcDbEntity
8
0
100
AcDbPolyline
90
8
70
1
43
0.0
10
98.571987057567327
20
-79.19630301182417
10
98.571987057567327
20
-92.196303011824185
42
0.41421356237307422
10
99.071987057567341
20
-92.69630301182417
10
112.07198705756736
20
-92.696303011824185
42
0.41421356237307422
10
112.57198705756733
20
-92.196303011824185
10
112.57198705756736
20
-79.19630301182417
42
0.41421356237309503
10
112.07198705756736
20
-78.696303011824156
10
99.071987057567341
20
-78.69630301182417
42
0.41421356237308982
0
LWPOLYLINE
5
147
100
AcDbEntity
8
0
100
AcDbPolyline
90
8
70
1
43
0.0
10
60.471987057567333
20
-79.19630301182417
42
-0.41421356237309503
10
60.971987057567326
20
-78.69630301182417
10
73.971987057567333
20
-78.69630301182417
42
-0.41421356237309503
10
74.471987057567318
20
-79.19630301182417
10
74.471987057567333
20
-92.196303011824185
42
-0.41421356237307422
10
73.971987057567333
20
-92.696303011824185
10
60.971987057567326
20
-92.696303011824185
42
-0.414213562373069
10
60.471987057567333
20
-92.196303011824185
0
LWPOLYLINE
5
148
100
AcDbEntity
8
0
100
AcDbPolyline
90
8
70
1
43
0.0
10
155.72198705756733
20
-79.19630301182417
42
-0.41421356237308982
10
156.22198705756733
20
-78.69630301182417
10
169.2219870575673
20
-78.69630301182417
42
-0.41421356237313145
10
169.72198705756733
20
-79.19630301182417
10
169.72198705756733
20
-92.196303011824185
42
-0.41421356237304302
10
169.2219870575673
20
-92.696303011824185
10
156.22198705756733
20
-92.696303011824185
42
-0.41421356237307422
10
155.72198705756733
20
-92.196303011824185
0
LWPOLYLINE
5
149
100
AcDbEntity
8
0
100
AcDbPolyline
90
8
70
1
43
0.0
10
36.659487057567326
20
-79.19630301182417
42
-0.41421356237309503
10
37.159487057567326
20
-78.69630301182417
10
50.159487057567333
20
-78.69630301182417
42
-0.41421356237309503
10
50.659487057567326
20
-79.19630301182417
10
50.659487057567333
20
-92.196303011824185
42
-0.41421356237307422
10
50.159487057567333
20
-92.696303011824185
10
37.159487057567318
20
-92.69630301182417
42
-0.41421356237307422
10
36.659487057567326
20
-92.196303011824185
0
LWPOLYLINE
5
150
100
AcDbEntity
8
0
100
AcDbPolyline
90
20
70
1
43
0.0
10
311.50998705756729
20
-73.646303011824159
10
312.09698705756739
20
-73.646303011824159
42
0.41421356237310025
10
312.59698705756739
20
-73.146303011824145
10
312.59698705756739
20
-60.146303011824138
42
0.41421356237312101
10
312.09698705756739
20
-59.646303011824138
10
280.04698705756732
20
-59.646303011824138
42
0.41421356237307944
10
279.54698705756732
20
-60.146303011824145
10
279.54698705756732
20
-73.146303011824159
42
0.41421356237313667
10
280.04698705756732
20
-73.646303011824173
10
280.63398705756731
20
-73.646303011824159
10
280.63398705756731
20
-75.146303011824159
42
0.41421356237313145
10
281.13398705756731
20
-75.646303011824173
10
287.13398705756737
20
-75.646303011824159
42
0.41421356237307422
10
287.63398705756737
20
-75.146303011824159
10
287.63398705756737
20
-73.646303011824159
10
304.50998705756729
20
-73.646303011824159
10
304.50998705756729
20
-75.146303011824159
42
0.41421356237313145
10
305.00998705756734
20
-75.646303011824173
10
311.00998705756729
20
-75.646303011824159
42
0.4142135623730222
10
311.50998705756729
20
-75.146303011824159
0
LWPOLYLINE
5
151
100
AcDbEntity
8
0
100
AcDbPolyline
90
8
70
1
43
0.0
10
341.45948705756734
20
-60.146303011824138
42
-0.41421356237311585
10
341.95948705756734
20
-59.646303011824138
10
354.95948705756734
20
-59.646303011824145
42
-0.4142135623730222
10
355.45948705756729
20
-60.146303011824138
10
355.45948705756729
20
-73.146303011824145
42
-0.41421356237311063
10
354.95948705756734
20
-73.646303011824159
10
341.95948705756734
20
-73.646303011824145
42
-0.41421356237310542
10
341.45948705756734
20
-73.146303011824159
0
LWPOLYLINE
5
152
100
AcDbEntity
8
0
100
AcDbPolyline
90
8
70
1
43
0.0
10
184.29698705756732
20
-60.146303011824138
42
-0.41421356237307422
10
184.79698705756735
20
-59.646303011824138
10
197.79698705756732
20
-59.646303011824138
42
-0.41421356237313145
10
198.29698705756732
20
-60.146303011824138
10
198.29698705756732
20
-73.146303011824145
42
-0.41421356237311063
10
197.79698705756732
20
-73.646303011824159
10
184.79698705756735
20
-73.646303011824159
42
-0.41421356237313667
10
184.29698705756735
20
-73.146303011824159
0
LWPOLYLINE
5
153
100
AcDbEntity
8
0
100
AcDbPolyline
90
8
70
1
43
0.0
10
203.34698705756736
20
-60.146303011824138
42
-0.4142135623730222
10
203.84698705756733
20
-59.646303011824138
10
216.8469870575673
20
-59.646303011824159
42
-0.41421356237312101
10
217.3469870575673
20
-60.146303011824138
10
217.3469870575673
20
-73.146303011824145
42
-0.41421356237310025
10
216.8469870575673
20
-73.646303011824159
10
203.84698705756733
20
-73.646303011824145
42
-0.41421356237312623
10
203.34698705756733
20
-73.146303011824159
0
LWPOLYLINE
5
154
100
AcDbEntity
8
0
100
AcDbPolyline
90
8
70
1
43
0.0
10
84.284487057567333
20
-98.24630301182421
42
-0.41421356237309503
10
84.784487057567333
20
-97.746303011824196
10
97.784487057567318
20
-97.746303011824196
42
-0.41421356237310542
10
98.284487057567304
20
-98.24630301182421
10
98.284487057567304
20
-111.24630301182421
42
-0.4142135623730846
10
97.784487057567318
20
-111.74630301182418
10
84.784487057567333
20
-111.74630301182418
42
-0.41421356237309503
10
84.284487057567333
20
-111.24630301182418
0
LWPOLYLINE
5
155
100
AcDbEntity
8
0
100
AcDbPolyline
90
8
70
1
43
0.0
10
236.68448705756731
20
-98.24630301182421
42
-0.4142135623730534
10
237.18448705756731
20
-97.746303011824196
10
250.18448705756731
20
-97.746303011824182
42
-0.41421356237310542
10
250.68448705756734
20
-98.24630301182421
10
250.68448705756731
20
-111.24630301182421
42
-0.41421356237300139
10
250.18448705756731
20
-111.74630301182418
10
237.18448705756731
20
-111.74630301182418
42
-0.41421356237313667
10
236.68448705756731
20
-111.24630301182418
0
LWPOLYLINE
5
156
100
AcDbEntity
8
0
100
AcDbPolyline
90
8
70
1
43
0.0
10
217.6344870575673
20
-98.24630301182421
42
-0.4142135623730534
10
218.1344870575673
20
-97.746303011824196
10
231.1344870575673
20
-97.746303011824182
42
-0.41421356237310542
10
231.63448705756733
20
-98.24630301182421
10
231.6344870575673
20
-111.24630301182421
42
-0.41421356237300139
10
231.1344870575673
20
-111.74630301182418
10
218.1344870575673
20
-111.74630301182418
42
-0.41421356237313667
10
217.6344870575673
20
-111.24630301182418
0
LWPOLYLINE
5
157
100
AcDbEntity
8
0
100
AcDbPolyline
90
8
70
1
43
0.0
10
59.241237057567318
20
-118.29630301182419
42
-0.41421356237309503
10
59.741237057567325
20
-117.79630301182419
10
65.741237057567332
20
-117.79630301182419
42
-0.41421356237310542
10
66.241237057567332
20
-118.29630301182419
10
66.241237057567346
20
-132.29630301182419
42
-0.41421356237308982
10
65.741237057567332
20
-132.79630301182419
10
59.741237057567325
20
-132.79630301182419
42
-0.41421356237308982
10
59.241237057567332
20
-132.29630301182419
0
LWPOLYLINE
5
158
100
AcDbEntity
8
0
100
AcDbPolyline
90
8
70
1
43
0.0
10
198.58448705756734
20
-98.24630301182421
42
-0.4142135623730222
10
199.08448705756734
20
-97.746303011824196
10
212.08448705756734
20
-97.746303011824196
42
-0.41421356237313667
10
212.58448705756734
20
-98.24630301182421
10
212.58448705756734
20
-111.24630301182421
42
-0.41421356237303258
10
212.08448705756734
20
-111.74630301182418
10
199.08448705756734
20
-111.7463030118242
42
-0.41421356237310542
10
198.58448705756732
20
-111.24630301182418
0
LWPOLYLINE
5
159
100
AcDbEntity
8
0
100
AcDbPolyline
90
8
70
1
43
0.0
10
309.12873705756732
20
-110.2463030118242
42
-0.4142135623730222
10
308.62873705756732
20
-110.74630301182421
10
302.62873705756738
20
-110.74630301182421
42
-0.41421356237313667
10
302.12873705756738
20
-110.2463030118242
10
302.12873705756738
20
-96.246303011824182
42
-0.4142135623730534
10
302.62873705756738
20
-95.746303011824168
10
308.62873705756732
20
-95.746303011824153
42
-0.41421356237310542
10
309.12873705756732
20
-96.246303011824182
0
LWPOLYLINE
5
160
100
AcDbEntity
8
0
100
AcDbPolyline
90
8
70
1
43
0.0
10
255.73448705756732
20
-98.24630301182421
42
-0.4142135623730534
10
256.23448705756732
20
-97.746303011824196
10
269.23448705756732
20
-97.746303011824182
42
-0.41421356237310542
10
269.73448705756732
20
-98.24630301182421
10
269.73448705756732
20
-111.24630301182421
42
-0.41421356237300139
10
269.23448705756732
20
-111.74630301182418
10
256.23448705756732
20
-111.74630301182418
42
-0.41421356237313667
10
255.73448705756732
20
-111.24630301182418
0
LWPOLYLINE
5
161
100
AcDbEntity
8
0
100
AcDbPolyline
90
8
70
1
43
0.0
10
285.25273705756729
20
-110.2463030118242
42
-0.4142135623730222
10
284.75273705756734
20
-110.74630301182421
10
278.75273705756734
20
-110.74630301182422
42
-0.41421356237310542
10
278.25273705756734
20
-110.2463030118242
10
278.25273705756734
20
-96.246303011824182
42
-0.4142135623730222
10
278.75273705756734
20
-95.746303011824168
10
284.75273705756734
20
-95.746303011824153
42
-0.41421356237310542
10
285.25273705756734
20
-96.246303011824182
0
LWPOLYLINE
5
162
100
AcDbEntity
8
0
100
AcDbPolyline
90
8
70
1
43
0.0
10
179.53448705756733
20
-98.24630301182421
42
-0.4142135623730222
10
180.03448705756733
20
-97.746303011824196
10
193.03448705756733
20
-97.746303011824196
42
-0.41421356237313667
10
193.53448705756733
20
-98.24630301182421
10
193.53448705756733
20
-111.24630301182421
42
-0.41421356237303258
10
193.03448705756733
20
-111.74630301182418
10
180.03448705756733
20
-111.7463030118242
42
-0.41421356237310542
10
179.5344870575673
20
-111.24630301182418
0
LWPOLYLINE
5
163
100
AcDbEntity
8
0
100
AcDbPolyline
90
8
70
1
43
0.0
10
286.69073705756739
20
-98.24630301182421
42
-0.4142135623730222
10
287.19073705756733
20
-97.746303011824196
10
300.19073705756733
20
-97.746303011824196
42
-0.41421356237313667
10
300.69073705756739
20
-98.24630301182421
10
300.69073705756739
20
-111.24630301182421
42
-0.41421356237303258
10
300.19073705756733
20
-111.74630301182418
10
287.19073705756733
20
-111.7463030118242
42
-0.41421356237310542
10
286.69073705756733
20
-111.24630301182418
0
LWPOLYLINE
5
164
100
AcDbEntity
8
0
100
AcDbPolyline
90
8
70
1
43
0.0
10
335.90948705756739
20
-78.696303011824199
42
-0.41421356237313667
10
336.40948705756739
20
-79.19630301182417
10
336.40948705756739
20
-92.196303011824185
42
-0.4142135623731783
10
335.90948705756739
20
-92.696303011824185
10
322.90948705756739
20
-92.696303011824156
42
-0.41421356237313667
10
322.40948705756739
20
-92.196303011824185
10
322.40948705756745
20
-79.19630301182417
42
-0.41421356237319906
10
322.90948705756739
20
-78.69630301182417
0
LWPOLYLINE
5
165
100
AcDbEntity
8
0
100
AcDbPolyline
90
8
70
1
43
0.0
10
160.48448705756732
20
-98.24630301182421
42
-0.4142135623730534
10
160.98448705756735
20
-97.746303011824196
10
173.98448705756735
20
-97.746303011824182
42
-0.41421356237310542
10
174.48448705756735
20
-98.24630301182421
10
174.48448705756732
20
-111.24630301182421
42
-0.41421356237300139
10
173.98448705756735
20
-111.74630301182418
10
160.98448705756735
20
-111.74630301182418
42
-0.41421356237313667
10
160.48448705756732
20
-111.24630301182418
0
LWPOLYLINE
5
166
100
AcDbEntity
8
0
100
AcDbPolyline
90
8
70
1
43
0.0
10
34.278237057567331
20
-98.24630301182421
42
-0.41421356237310802
10
34.778237057567324
20
-97.746303011824196
10
52.540737057567327
20
-97.746303011824196
42
-0.41421356237310542
10
53.040737057567327
20
-98.24630301182421
10
53.04073705756732
20
-111.24630301182421
42
-0.4142135623730846
10
52.540737057567327
20
-111.74630301182418
10
34.778237057567324
20
-111.74630301182418
42
-0.41421356237310542
10
34.278237057567324
20
-111.24630301182418
0
LWPOLYLINE
5
167
100
AcDbEntity
8
0
100
AcDbPolyline
90
8
70
1
43
0.0
10
341.45948705756734
20
-79.19630301182417
42
-0.41421356237311585
10
341.95948705756734
20
-78.69630301182417
10
354.95948705756734
20
-78.69630301182417
42
-0.4142135623730222
10
355.45948705756729
20
-79.19630301182417
10
355.45948705756729
20
-92.196303011824185
42
-0.4142135623730534
10
354.95948705756734
20
-92.696303011824185
10
341.95948705756734
20
-92.69630301182417
42
-0.41421356237310542
10
341.45948705756734
20
-92.196303011824185
0
LWPOLYLINE
5
168
100
AcDbEntity
8
0
100
AcDbPolyline
90
8
70
1
43
0.0
10
154.93448705756734
20
-97.746303011824196
42
-0.41421356237309503
10
155.43448705756734
20
-98.24630301182421
10
155.43448705756734
20
-111.24630301182421
42
-0.41421356237307422
10
154.93448705756734
20
-111.74630301182418
10
141.93448705756734
20
-111.74630301182418
42
-0.41421356237309503
10
141.43448705756731
20
-111.24630301182418
10
141.43448705756731
20
-98.246303011824168
42
-0.41421356237307422
10
141.93448705756734
20
-97.746303011824196
0
LWPOLYLINE
5
169
100
AcDbEntity
8
0
100
AcDbPolyline
90
8
70
1
43
0.0
10
255.73448705756732
20
-36.333803011824138
42
-0.41421356237308204
10
256.23448705756732
20
-35.833803011824138
10
269.23448705756732
20
-35.833803011824116
42
-0.41421356237310281
10
269.73448705756732
20
-36.333803011824138
10
269.73448705756732
20
-49.333803011824145
42
-0.41421356237301699
10
269.23448705756732
20
-49.833803011824138
10
256.23448705756732
20
-49.833803011824145
42
-0.41421356237313667
10
255.73448705756732
20
-49.333803011824138
0
LWPOLYLINE
5
170
100
AcDbEntity
8
0
100
AcDbPolyline
90
8
70
1
43
0.0
10
65.234487057567335
20
-98.24630301182421
42
-0.41421356237310542
10
65.734487057567321
20
-97.746303011824196
10
78.734487057567321
20
-97.746303011824196
42
-0.41421356237310542
10
79.234487057567321
20
-98.24630301182421
10
79.234487057567321
20
-111.24630301182421
42
-0.4142135623730846
10
78.734487057567321
20
-111.74630301182418
10
65.734487057567321
20
-111.74630301182418
42
-0.41421356237310542
10
65.234487057567321
20
-111.24630301182418
0
LWPOLYLINE
5
171
100
AcDbEntity
8
0
100
AcDbPolyline
90
8
70
1
43
0.0
10
135.88448705756733
20
-97.746303011824196
42
-0.41421356237309503
10
136.38448705756733
20
-98.24630301182421
10
136.38448705756733
20
-111.24630301182421
42
-0.41421356237307422
10
135.88448705756733
20
-111.74630301182418
10
122.88448705756733
20
-111.74630301182418
42
-0.41421356237309503
10
122.38448705756731
20
-111.24630301182418
10
122.38448705756731
20
-98.246303011824168
42
-0.41421356237307422
10
122.88448705756733
20
-97.746303011824196
0
LWPOLYLINE
5
172
100
AcDbEntity
8
0
100
AcDbPolyline
90
8
70
1
43
0.0
10
193.82198705756733
20
-36.333803011824138
42
-0.41421356237305079
10
194.32198705756733
20
-35.833803011824138
10
207.3219870575673
20
-35.833803011824116
42
-0.41421356237310281
10
207.8219870575673
20
-36.333803011824138
10
207.82198705756727
20
-49.333803011824145
42
-0.41421356237301699
10
207.3219870575673
20
-49.833803011824138
10
194.32198705756733
20
-49.833803011824131
42
-0.41421356237312623
10
193.82198705756733
20
-49.333803011824138
0
LWPOLYLINE
5
173
100
AcDbEntity
8
0
100
AcDbPolyline
90
8
70
1
43
0.0
10
55.70948705756733
20
-36.333803011824138
42
-0.41421356237309503
10
56.209487057567323
20
-35.833803011824138
10
69.209487057567316
20
-35.833803011824131
42
-0.41421356237309243
10
69.70948705756733
20
-36.333803011824138
10
69.709487057567316
20
-49.333803011824145
42
-0.41421356237310025
10
69.209487057567316
20
-49.833803011824138
10
56.209487057567323
20
-49.833803011824138
42
-0.41421356237309503
10
55.70948705756733
20
-49.333803011824138
0
LWPOLYLINE
5
174
100
AcDbEntity
8
0
100
AcDbPolyline
90
8
70
1
43
0.0
10
231.92198705756738
20
-79.19630301182417
42
-0.4142135623730222
10
232.42198705756735
20
-78.69630301182417
10
245.42198705756735
20
-78.69630301182417
42
-0.41421356237313145
10
245.92198705756738
20
-79.19630301182417
10
245.92198705756738
20
-92.196303011824185
42
-0.41421356237304302
10
245.42198705756735
20
-92.696303011824185
10
232.42198705756735
20
-92.69630301182417
42
-0.4142135623730846
10
231.92198705756735
20
-92.196303011824185
0
LWPOLYLINE
5
175
100
AcDbEntity
8
0
100
AcDbPolyline
90
8
70
1
43
0.0
10
270.02198705756729
20
-79.19630301182417
42
-0.41421356237307422
10
270.52198705756734
20
-78.69630301182417
10
283.52198705756734
20
-78.696303011824185
42
-0.41421356237312101
10
284.02198705756734
20
-79.19630301182417
10
284.02198705756734
20
-92.196303011824185
42
-0.41421356237301177
10
283.52198705756734
20
-92.696303011824185
10
270.52198705756734
20
-92.696303011824185
42
-0.41421356237309503
10
270.02198705756734
20
-92.196303011824185
0
LWPOLYLINE
5
176
100
AcDbEntity
8
0
100
AcDbPolyline
90
8
70
1
43
0.0
10
293.83448705756734
20
-79.19630301182417
42
-0.4142135623730222
10
294.33448705756734
20
-78.69630301182417
10
307.33448705756734
20
-78.69630301182417
42
-0.41421356237313145
10
307.83448705756734
20
-79.19630301182417
10
307.83448705756734
20
-92.196303011824185
42
-0.41421356237304302
10
307.33448705756734
20
-92.696303011824185
10
294.33448705756734
20
-92.69630301182417
42
-0.4142135623730846
10
293.83448705756729
20
-92.196303011824185
0
LWPOLYLINE
5
177
100
AcDbEntity
8
0
100
AcDbPolyline
90
8
70
1
43
0.0
10
116.83448705756734
20
-97.746303011824196
42
-0.41421356237309503
10
117.33448705756736
20
-98.24630301182421
10
117.33448705756736
20
-111.24630301182421
42
-0.41421356237307422
10
116.83448705756734
20
-111.74630301182418
10
103.83448705756734
20
-111.74630301182418
42
-0.41421356237309503
10
103.33448705756734
20
-111.24630301182418
10
103.33448705756734
20
-98.246303011824168
42
-0.41421356237307422
10
103.83448705756734
20
-97.746303011824196
0
LWPOLYLINE
5
178
100
AcDbEntity
8
0
100
AcDbPolyline
90
8
70
1
43
0.0
10
93.809487057567338
20
-36.333803011824138
42
-0.41421356237310802
10
94.309487057567338
20
-35.833803011824138
10
107.30948705756732
20
-35.833803011824131
42
-0.4142135623730846
10
107.80948705756731
20
-36.333803011824138
10
107.80948705756731
20
-49.333803011824145
42
-0.414213562373069
10
107.30948705756732
20
-49.833803011824138
10
94.309487057567338
20
-49.833803011824131
42
-0.41421356237310542
10
93.809487057567338
20
-49.333803011824138
0
LWPOLYLINE
5
179
100
AcDbEntity
8
0
100
AcDbPolyline
90
8
70
1
43
0.0
10
50.946987057567334
20
-60.146303011824138
42
-0.41421356237309503
10
51.446987057567327
20
-59.646303011824138
10
64.446987057567327
20
-59.646303011824138
42
-0.41421356237309503
10
64.946987057567327
20
-60.146303011824138
10
64.946987057567327
20
-73.146303011824145
42
-0.41421356237310542
10
64.446987057567327
20
-73.646303011824159
10
51.446987057567327
20
-73.646303011824145
42
-0.41421356237310542
10
50.946987057567334
20
-73.146303011824159
0
LWPOLYLINE
5
180
100
AcDbEntity
8
0
100
AcDbPolyline
90
8
70
1
43
0.0
10
374.0094870575673
20
-35.833803011824145
42
-0.4142135623730222
10
374.5094870575673
20
-36.333803011824138
10
374.5094870575673
20
-49.333803011824145
42
-0.41421356237310025
10
374.0094870575673
20
-49.833803011824138
10
361.00948705756736
20
-49.833803011824131
42
-0.4142135623730222
10
360.50948705756741
20
-49.333803011824138
10
360.50948705756741
20
-36.333803011824138
42
-0.41421356237311324
10
361.00948705756736
20
-35.833803011824138
0
LWPOLYLINE
5
181
100
AcDbEntity
8
0
100
AcDbPolyline
90
8
70
1
43
0.0
10
155.72198705756733
20
-36.333803011824138
42
-0.41421356237310802
10
156.22198705756733
20
-35.833803011824138
10
169.2219870575673
20
-35.833803011824131
42
-0.41421356237313406
10
169.72198705756733
20
-36.333803011824138
10
169.72198705756736
20
-49.333803011824145
42
-0.414213562373069
10
169.2219870575673
20
-49.833803011824138
10
156.22198705756733
20
-49.833803011824152
42
-0.41421356237310025
10
155.72198705756733
20
-49.333803011824138
0
LWPOLYLINE
5
182
100
AcDbEntity
8
0
100
AcDbPolyline
90
8
70
1
43
0.0
10
335.90948705756739
20
-35.833803011824166
42
-0.41421356237313667
10
336.40948705756739
20
-36.333803011824138
10
336.40948705756733
20
-49.333803011824145
42
-0.41421356237318346
10
335.90948705756739
20
-49.833803011824138
10
322.90948705756739
20
-49.833803011824109
42
-0.41421356237313667
10
322.40948705756739
20
-49.333803011824138
10
322.40948705756745
20
-36.333803011824138
42
-0.41421356237319651
10
322.90948705756739
20
-35.833803011824138
0
LWPOLYLINE
5
183
100
AcDbEntity
8
0
100
AcDbPolyline
90
8
70
1
43
0.0
10
150.95948705756734
20
-117.29630301182418
42
-0.41421356237309503
10
151.45948705756734
20
-116.79630301182416
10
164.45948705756734
20
-116.79630301182415
42
-0.41421356237310542
10
164.95948705756734
20
-117.29630301182418
10
164.95948705756732
20
-130.29630301182419
42
-0.41421356237309503
10
164.45948705756734
20
-130.79630301182419
10
151.45948705756734
20
-130.79630301182419
42
-0.41421356237309503
10
150.95948705756734
20
-130.29630301182419
0
LWPOLYLINE
5
184
100
AcDbEntity
8
0
100
AcDbPolyline
90
8
70
1
43
0.0
10
112.85948705756731
20
-117.29630301182418
42
-0.41421356237309503
10
113.35948705756732
20
-116.79630301182416
10
126.35948705756732
20
-116.79630301182416
42
-0.41421356237309503
10
126.85948705756732
20
-117.29630301182418
10
126.85948705756732
20
-130.29630301182419
42
-0.4142135623730846
10
126.35948705756732
20
-130.79630301182419
10
113.35948705756732
20
-130.79630301182419
42
-0.41421356237309503
10
112.85948705756731
20
-130.29630301182419
0
LWPOLYLINE
5
185
100
AcDbEntity
8
0
100
AcDbPolyline
90
8
70
1
43
0.0
10
208.10948705756738
20
-117.29630301182418
42
-0.41421356237310542
10
208.60948705756732
20
-116.79630301182416
10
221.60948705756735
20
-116.79630301182416
42
-0.41421356237313667
10
222.10948705756735
20
-117.29630301182418
10
222.10948705756735
20
-130.29630301182419
42
-0.41421356237312623
10
221.60948705756735
20
-130.79630301182419
10
208.60948705756732
20
-130.79630301182422
42
-0.41421356237310542
10
208.10948705756732
20
-130.29630301182419
0
LWPOLYLINE
5
186
100
AcDbEntity
8
0
100
AcDbPolyline
90
8
70
1
43
0.0
10
170.00948705756736
20
-117.29630301182418
42
-0.41421356237310542
10
170.5094870575673
20
-116.79630301182416
10
183.50948705756733
20
-116.79630301182416
42
-0.41421356237313667
10
184.00948705756733
20
-117.29630301182418
10
184.00948705756733
20
-130.29630301182419
42
-0.41421356237312623
10
183.50948705756733
20
-130.79630301182419
10
170.5094870575673
20
-130.79630301182422
42
-0.41421356237310542
10
170.0094870575673
20
-130.29630301182419
0
LWPOLYLINE
5
187
100
AcDbEntity
8
0
100
AcDbPolyline
90
8
70
1
43
0.0
10
227.1594870575673
20
-117.29630301182418
42
-0.41421356237313667
10
227.6594870575673
20
-116.79630301182416
10
240.65948705756733
20
-116.79630301182415
42
-0.41421356237310542
10
241.15948705756733
20
-117.29630301182418
10
241.15948705756728
20
-130.29630301182419
42
-0.41421356237309503
10
240.65948705756733
20
-130.79630301182419
10
227.6594870575673
20
-130.79630301182419
42
-0.41421356237313667
10
227.1594870575673
20
-130.29630301182419
0
LWPOLYLINE
5
188
100
AcDbEntity
8
0
100
AcDbPolyline
90
8
70
1
43
0.0
10
246.20948705756732
20
-117.29630301182418
42
-0.41421356237313667
10
246.70948705756732
20
-116.79630301182416
10
259.70948705756734
20
-116.79630301182415
42
-0.41421356237310542
10
260.20948705756734
20
-117.29630301182418
10
260.20948705756729
20
-130.29630301182419
42
-0.41421356237309503
10
259.70948705756734
20
-130.79630301182419
10
246.70948705756732
20
-130.79630301182419
42
-0.41421356237313667
10
246.20948705756732
20
-130.29630301182419
0
LWPOLYLINE
5
189
100
AcDbEntity
8
0
100
AcDbPolyline
90
8
70
1
43
0.0
10
93.809487057567338
20
-117.29630301182418
42
-0.41421356237309503
10
94.309487057567338
20
-116.79630301182416
10
107.30948705756732
20
-116.79630301182416
42
-0.41421356237310542
10
107.80948705756731
20
-117.29630301182418
10
107.80948705756734
20
-130.29630301182419
42
-0.41421356237306384
10
107.30948705756732
20
-130.79630301182419
10
94.309487057567338
20
-130.79630301182419
42
-0.41421356237309503
10
93.809487057567338
20
-130.29630301182419
0
LWPOLYLINE
5
190
100
AcDbEntity
8
0
100
AcDbPolyline
90
8
70
1
43
0.0
10
74.759487057567327
20
-117.29630301182416
10
74.759487057567327
20
-130.29630301182419
42
0.41421356237310542
10
75.259487057567327
20
-130.79630301182422
10
88.259487057567327
20
-130.79630301182419
42
0.4142135623730846
10
88.759487057567341
20
-130.29630301182419
10
88.759487057567341
20
-117.29630301182418
42
0.41421356237309503
10
88.259487057567327
20
-116.79630301182415
10
75.259487057567327
20
-116.79630301182416
42
0.41421356237308982
0
LWPOLYLINE
5
191
100
AcDbEntity
8
0
100
AcDbPolyline
90
8
70
1
43
0.0
10
35.36523705756732
20
-118.29630301182418
10
35.36523705756732
20
-132.29630301182419
42
0.41421356237310542
10
35.865237057567327
20
-132.79630301182419
10
41.865237057567327
20
-132.79630301182419
42
0.41421356237308982
10
42.365237057567327
20
-132.29630301182419
10
42.36523705756732
20
-118.29630301182419
42
0.41421356237310542
10
41.865237057567327
20
-117.79630301182419
10
35.865237057567327
20
-117.79630301182419
42
0.41421356237308204
0
LWPOLYLINE
5
192
100
AcDbEntity
8
0
100
AcDbPolyline
90
8
70
1
43
0.0
10
43.803237057567308
20
-117.29630301182418
42
-0.41421356237310025
10
44.30323705756733
20
-116.79630301182416
10
57.303237057567323
20
-116.79630301182416
42
-0.41421356237308982
10
57.803237057567323
20
-117.29630301182418
10
57.80323705756733
20
-130.29630301182419
42
-0.4142135623730846
10
57.303237057567323
20
-130.79630301182419
10
44.30323705756733
20
-130.79630301182419
42
-0.41421356237310542
10
43.80323705756733
20
-130.29630301182419
0
LWPOLYLINE
5
193
100
AcDbEntity
8
0
100
AcDbPolyline
90
8
70
1
43
0.0
10
131.90948705756733
20
-117.29630301182418
42
-0.41421356237309503
10
132.40948705756733
20
-116.79630301182416
10
145.40948705756733
20
-116.79630301182416
42
-0.41421356237309503
10
145.90948705756733
20
-117.29630301182418
10
145.90948705756733
20
-130.29630301182419
42
-0.4142135623730846
10
145.40948705756733
20
-130.79630301182419
10
132.40948705756733
20
-130.79630301182419
42
-0.41421356237309503
10
131.90948705756733
20
-130.29630301182419
0
LWPOLYLINE
5
194
100
AcDbEntity
8
0
100
AcDbPolyline
90
4
70
1
43
0.0
10
48.80323705756733
20
-37.737803011824191
10
48.80323705756733
20
-47.740053011824131
42
0.99999999999999989
10
52.80323705756733
20
-47.740053011824131
10
52.80323705756733
20
-37.737803011824198
42
0.99999999999999989
0
LWPOLYLINE
5
195
100
AcDbEntity
8
0
100
AcDbPolyline
90
4
70
1
43
0.0
10
170.93611205756733
20
-56.540053011824185
10
103.15254955756735
20
-56.540053011824185
42
0.99999999999999989
10
103.15254955756735
20
-57.940053011824176
10
170.93611205756733
20
-57.940053011824162
42
0.99999999999999989
0
LWPOLYLINE
5
196
100
AcDbEntity
8
0
100
AcDbPolyline
90
4
70
1
43
0.0
10
173.33611205756736
20
-52.940053011824197
42
-0.99999999999999989
10
173.33611205756736
20
-51.540053011824192
10
241.11967455756735
20
-51.54005301182417
42
-0.99999999999999989
10
241.11967455756735
20
-52.940053011824176
0
LWPOLYLINE
5
197
100
AcDbEntity
8
0
100
AcDbPolyline
90
4
70
1
43
0.0
10
32.768987057567323
20
-55.440053011824205
10
65.810768307567315
20
-55.440053011824197
42
0.99999999999999989
10
65.810768307567329
20
-54.040053011824199
10
32.768987057567323
20
-54.040053011824213
42
0.99999999999999989
0
LWPOLYLINE
5
198
100
AcDbEntity
8
0
100
AcDbPolyline
90
4
70
1
43
0.0
10
347.36736205756728
20
-51.540053011824121
42
-0.99999999999999989
10
347.36736205756728
20
-52.940053011824126
10
323.20323705756726
20
-52.940053011824162
42
-0.99999999999999989
10
323.20323705756726
20
-51.540053011824156
0
LWPOLYLINE
5
199
100
AcDbEntity
8
0
100
AcDbPolyline
90
4
70
1
43
0.0
10
323.20323705756726
20
-57.940053011824162
42
-0.99999999999999989
10
323.20323705756726
20
-56.540053011824156
10
347.36736205756733
20
-56.540053011824121
42
-0.99999999999999989
10
347.36736205756733
20
-57.940053011824126
0
LWPOLYLINE
5
200
100
AcDbEntity
8
0
100
AcDbPolyline
90
4
70
1
43
0.0
10
315.50323705756733
20
-37.737803011824134
10
315.50323705756733
20
-47.740053011823953
42
0.99999999999999989
10
319.50323705756733
20
-47.740053011823925
10
319.50323705756733
20
-37.737803011824134
42
0.99999999999999989
0
LWPOLYLINE
5
201
100
AcDbEntity
8
0
100
AcDbPolyline
90
4
70
1
43
0.0
10
291.69143383820619
20
-37.737803011824454
10
291.69143383820619
20
-47.740053011824138
42
0.99999999999999989
10
295.69143383820619
20
-47.74005301182369
10
295.69143383820619
20
-37.737803011824141
42
0.99999999999999989
0
LWPOLYLINE
5
202
100
AcDbEntity
8
0
100
AcDbPolyline
90
4
70
1
43
0.0
10
103.15254955756731
20
-52.94005301182419
10
170.93611205756733
20
-52.94005301182419
42
0.99999999999999989
10
170.93611205756733
20
-51.54005301182417
10
103.15254955756734
20
-51.54005301182417
42
0.99999999999999989
0
LWPOLYLINE
5
203
100
AcDbEntity
8
0
100
AcDbPolyline
90
4
70
1
43
0.0
10
32.46898705756734
20
-57.940053011824197
42
-0.99999999999999989
10
32.468987057567347
20
-56.540053011824192
10
100.75254955756733
20
-56.54005301182417
42
-0.99999999999999989
10
100.75254955756733
20
-57.940053011824176
0
LWPOLYLINE
5
204
100
AcDbEntity
8
0
100
AcDbPolyline
90
4
70
1
43
0.0
10
129.76573705756732
20
-37.737803011824013
10
129.76573705756732
20
-47.740053011824124
42
0.99999999999999989
10
133.76573705756732
20
-47.740053011824124
10
133.76573705756732
20
-37.737803011824184
42
0.99999999999999989
0
LWPOLYLINE
5
205
100
AcDbEntity
8
0
100
AcDbPolyline
90
4
70
1
43
0.0
10
173.33611205756739
20
-57.940053011824176
10
241.11967455756735
20
-57.940053011824176
42
0.99999999999999989
10
241.11967455756735
20
-56.540053011824185
10
173.33611205756736
20
-56.540053011824192
42
0.99999999999999989
0
LWPOLYLINE
5
206
100
AcDbEntity
8
0
100
AcDbPolyline
90
4
70
1
43
0.0
10
243.51967455756736
20
-52.94005301182419
10
311.80323705756734
20
-52.94005301182419
42
0.99999999999999989
10
311.80323705756734
20
-51.54005301182417
10
243.51967455756736
20
-51.54005301182417
42
0.99999999999999989
0
LWPOLYLINE
5
207
100
AcDbEntity
8
0
100
AcDbPolyline
90
4
70
1
43
0.0
10
349.76736205756737
20
-57.940053011824148
10
373.93148705756738
20
-57.940053011824148
42
0.99999999999999989
10
373.93148705756732
20
-56.540053011824149
10
349.76736205756731
20
-56.540053011824156
42
0.99999999999999989
0
CIRCLE
5
208
100
AcDbEntity
8
0
100
AcDbCircle
10
317.50323705756733
20
-54.740053011824152
30
2.2204460492503131e-15
40
3.0000000000000093
210
-0
220
1.3877787807814454e-17
230
1
0
LWPOLYLINE
5
209
100
AcDbEntity
8
0
100
AcDbPolyline
90
4
70
1
43
0.0
10
323.50323705756739
20
-55.440053011824155
10
373.63148705756743
20
-55.440053011824155
42
0.99999999999999989
10
373.6314870575676
20
-54.040053011824142
10
323.50323705756739
20
-54.040053011824142
42
0.99999999999999989
0
LWPOLYLINE
5
210
100
AcDbEntity
8
0
100
AcDbPolyline
90
4
70
1
43
0.0
10
349.76736205756737
20
-52.940053011824162
42
-0.99999999999999989
10
349.76736205756737
20
-51.540053011824156
10
373.93148705756738
20
-51.540053011824121
42
-0.99999999999999989
10
373.93148705756738
20
-52.940053011824126
0
LWPOLYLINE
5
211
100
AcDbEntity
8
0
100
AcDbPolyline
90
4
70
1
43
0.0
10
311.80323705756734
20
-56.540053011824156
42
-0.99999999999999989
10
311.80323705756734
20
-57.940053011824162
10
243.51967455756736
20
-57.940053011824176
42
-0.99999999999999989
10
243.51967455756736
20
-56.54005301182417
0
LWPOLYLINE
5
212
100
AcDbEntity
8
0
100
AcDbPolyline
90
4
70
1
43
0.0
10
210.7282370575673
20
-37.73780301182417
10
210.7282370575673
20
-47.740053011824138
42
0.99999999999999989
10
214.72823705756727
20
-47.740053011823925
10
214.72823705756727
20
-37.737803011824155
42
0.99999999999999989
0
LWPOLYLINE
5
213
100
AcDbEntity
8
0
100
AcDbPolyline
90
4
70
1
43
0.0
10
32.468987057567347
20
-52.94005301182419
10
100.75254955756735
20
-52.94005301182419
42
0.99999999999999989
10
100.75254955756735
20
-51.54005301182417
10
32.468987057567347
20
-51.540053011824192
42
0.99999999999999989
0
LWPOLYLINE
5
214
100
AcDbEntity
8
0
100
AcDbPolyline
90
6
70
1
43
0.0
10
233.15948705756733
20
-131.79630301182422
10
216.10948705756732
20
-131.79630301182422
42
0.41421357110197449
10
215.60948705756732
20
-132.29630302672533
42
0.41421356237309503
10
216.10948705756732
20
-132.79630302672535
10
233.15948705756733
20
-132.79630302672533
42
0.4142135623730846
10
233.65948705756733
20
-132.29630302672535
42
0.41421357110198487
0
LWPOLYLINE
5
215
100
AcDbEntity
8
0
100
AcDbPolyline
90
6
70
1
43
0.0
10
156.95948705756732
20
-131.79630301182422
10
139.90948705756733
20
-131.79630301182422
42
0.41421357110197449
10
139.40948705756733
20
-132.29630302672533
42
0.41421356237309503
10
139.90948705756733
20
-132.79630302672535
10
156.95948705756732
20
-132.79630302672533
42
0.4142135623730846
10
157.45948705756734
20
-132.29630302672535
42
0.41421357110198487
0
LWPOLYLINE
5
216
100
AcDbEntity
8
0
100
AcDbPolyline
90
6
70
1
43
0.0
10
125.62198705756734
20
-77.696303011824142
10
142.67198705756732
20
-77.696303011824142
42
0.41421357110198487
10
143.17198705756732
20
-77.196302996922995
42
0.41421356237309503
10
142.67198705756729
20
-76.696302996922981
10
125.62198705756734
20
-76.696302996922995
42
0.41421356237308982
10
125.12198705756732
20
-77.196302996922995
42
0.41421357110199525
0
LWPOLYLINE
5
217
100
AcDbEntity
8
0
100
AcDbPolyline
90
6
70
1
43
0.0
10
201.82198705756733
20
-77.696303011824142
10
218.87198705756731
20
-77.696303011824142
42
0.41421357110198487
10
219.37198705756731
20
-77.196302996922995
42
0.41421356237309503
10
218.87198705756731
20
-76.696302996922981
10
201.82198705756733
20
-76.696302996923009
42
0.41421356237308982
10
201.32198705756733
20
-77.196302996922995
42
0.41421357110199009
0
LWPOLYLINE
5
218
100
AcDbEntity
8
0
100
AcDbPolyline
90
6
70
1
43
0.0
10
220.87198705756734
20
-77.696303011824142
10
237.92198705756732
20
-77.696303011824142
42
0.41421357110198487
10
238.42198705756732
20
-77.196302996922995
42
0.41421356237309503
10
237.92198705756732
20
-76.696302996922981
10
220.87198705756734
20
-76.696302996923009
42
0.41421356237308982
10
220.37198705756734
20
-77.196302996922995
42
0.41421357110199009
0
LWPOLYLINE
5
219
100
AcDbEntity
8
0
100
AcDbPolyline
90
6
70
1
43
0.0
10
162.22198705756733
20
-77.196303011824142
42
-0.41421356237309503
10
161.7219870575673
20
-77.696303011824142
10
144.67198705756738
20
-77.696303011824156
42
-0.41421356237309503
10
144.17198705756735
20
-77.196303011824156
42
-0.41421357110198487
10
144.67198705756735
20
-76.696302996923009
10
161.7219870575673
20
-76.696302996922995
42
-0.41421357110198487
0
LWPOLYLINE
5
220
100
AcDbEntity
8
0
100
AcDbPolyline
90
6
70
1
43
0.0
10
86.021987057567316
20
-77.196303011824142
42
-0.41421356237309503
10
85.521987057567316
20
-77.696303011824142
10
68.471987057567318
20
-77.696303011824156
42
-0.41421356237309503
10
67.971987057567318
20
-77.196303011824156
42
-0.41421357110199009
10
68.471987057567318
20
-76.696302996922995
10
85.521987057567316
20
-76.696302996922995
42
-0.41421357110198487
0
LWPOLYLINE
5
221
100
AcDbEntity
8
0
100
AcDbPolyline
90
10
70
1
43
0.0
10
72.746987050116758
20
-113.70128051962564
42
-0.05607747586567402
10
72.759487042666166
20
-113.81238291715013
10
72.759487042666166
20
-122.78364679368579
42
0.40691157464940025
10
73.246990969616931
20
-123.28349061745314
42
0.42155345679586309
10
73.759487057567341
20
-122.78364679405831
10
73.759487057567327
20
-113.24630301182417
42
0.41421356237309503
10
73.259487057567327
20
-112.74630301182418
10
73.234487057567321
20
-112.74630301182415
42
0.41421356237310542
10
72.734487057567321
20
-113.24630301182418
10
72.734487057567321
20
-113.59017812210115
42
0.0560774758656599
0
LWPOLYLINE
5
222
100
AcDbEntity
8
0
100
AcDbPolyline
90
6
70
1
43
0.0
10
120.35948705756732
20
-132.29630301182419
42
-0.41421356237309503
10
120.85948705756734
20
-131.79630301182419
10
137.9094870575673
20
-131.79630301182419
42
-0.41421356237309503
10
138.40948705756733
20
-132.29630301182419
42
-0.41421357110197449
10
137.9094870575673
20
-132.79630302672533
10
120.85948705756734
20
-132.79630302672533
42
-0.41421357110197449
0
LWPOLYLINE
5
223
100
AcDbEntity
8
0
100
AcDbPolyline
90
6
70
1
43
0.0
10
196.55948705756731
20
-132.29630301182419
42
-0.41421356237309503
10
197.05948705756731
20
-131.79630301182419
10
214.10948705756732
20
-131.79630301182419
42
-0.41421356237309503
10
214.60948705756732
20
-132.29630301182419
42
-0.41421357110197449
10
214.10948705756732
20
-132.79630302672533
10
197.05948705756737
20
-132.79630302672533
42
-0.41421357110197449
0
LWPOLYLINE
5
224
100
AcDbEntity
8
0
100
AcDbPolyline
90
6
70
1
43
0.0
10
158.45948705756734
20
-132.29630301182419
42
-0.41421356237309503
10
158.95948705756734
20
-131.79630301182419
10
176.0094870575673
20
-131.79630301182419
42
-0.41421356237309503
10
176.5094870575673
20
-132.29630301182419
42
-0.41421357110197449
10
176.0094870575673
20
-132.79630302672533
10
158.95948705756734
20
-132.79630302672533
42
-0.41421357110197449
0
LWPOLYLINE
5
225
100
AcDbEntity
8
0
100
AcDbPolyline
90
6
70
1
43
0.0
10
82.259487057567341
20
-132.29630301182419
42
-0.41421356237309503
10
82.759487057567341
20
-131.79630301182419
10
99.80948705756731
20
-131.79630301182419
42
-0.41421356237309503
10
100.30948705756731
20
-132.29630301182419
42
-0.41421357110197449
10
99.80948705756731
20
-132.79630302672533
10
82.759487057567355
20
-132.79630302672535
42
-0.41421357110197449
0
LWPOLYLINE
5
226
100
AcDbEntity
8
0
100
AcDbPolyline
90
6
70
1
43
0.0
10
124.1219870575673
20
-77.196303011824142
42
-0.41421356237309503
10
123.62198705756731
20
-77.696303011824142
10
106.57198705756738
20
-77.696303011824156
42
-0.41421356237309503
10
106.07198705756737
20
-77.196303011824156
42
-0.41421357110199009
10
106.57198705756736
20
-76.696302996922995
10
123.62198705756728
20
-76.696302996922981
42
-0.41421357110198487
0
LWPOLYLINE
5
227
100
AcDbEntity
8
0
100
AcDbPolyline
90
6
70
1
43
0.0
10
200.3219870575673
20
-77.196303011824142
42
-0.41421356237309503
10
199.8219870575673
20
-77.696303011824142
10
182.77198705756734
20
-77.696303011824156
42
-0.41421356237309503
10
182.27198705756734
20
-77.196303011824156
42
-0.41421357110198487
10
182.77198705756734
20
-76.696302996923009
10
199.8219870575673
20
-76.696302996922995
42
-0.41421357110198487
0
LWPOLYLINE
5
228
100
AcDbEntity
8
0
100
AcDbPolyline
90
6
70
1
43
0.0
10
276.52198705756734
20
-77.196302996922995
42
-0.41421357110199009
10
276.02198705756734
20
-77.696303011824142
10
258.97198705756739
20
-77.696303011824156
42
-0.41421356237309503
10
258.47198705756733
20
-77.196303011824156
42
-0.41421357110199009
10
258.97198705756739
20
-76.696302996922995
10
276.02198705756734
20
-76.696302996922995
42
-0.41421356237308982
0
LWPOLYLINE
5
229
100
AcDbEntity
8
0
100
AcDbPolyline
90
6
70
1
43
0.0
10
235.15948705756733
20
-132.79630302672535
10
252.20948705756734
20
-132.79630302672535
42
0.41421357110197449
10
252.70948705756734
20
-132.29630301182419
42
0.41421356237309503
10
252.20948705756734
20
-131.79630301182422
10
235.15948705756733
20
-131.79630301182419
42
0.4142135623730846
10
234.65948705756733
20
-132.29630301182419
42
0.41421357110198487
0
LWPOLYLINE
5
230
100
AcDbEntity
8
0
100
AcDbPolyline
90
6
70
1
43
0.0
10
257.47198705756733
20
-77.196302996922995
42
-0.41421357110199009
10
256.97198705756733
20
-77.696303011824142
10
239.92198705756738
20
-77.696303011824156
42
-0.41421357110199525
10
239.42198705756735
20
-77.196302996922995
42
-0.41421356237308982
10
239.92198705756735
20
-76.696302996922995
10
256.97198705756733
20
-76.696302996922995
42
-0.41421356237308982
0
LWPOLYLINE
5
231
100
AcDbEntity
8
0
100
AcDbPolyline
90
6
70
1
43
0.0
10
163.72198705756739
20
-77.696303011824142
10
180.77198705756732
20
-77.696303011824142
42
0.41421357110198487
10
181.27198705756729
20
-77.196302996922995
42
0.41421356237309503
10
180.77198705756729
20
-76.696302996922981
10
163.72198705756733
20
-76.696302996923009
42
0.41421356237308982
10
163.22198705756736
20
-77.196302996922995
42
0.41421357110199009
0
LWPOLYLINE
5
232
100
AcDbEntity
8
0
100
AcDbPolyline
90
6
70
1
43
0.0
10
87.521987057567372
20
-77.696303011824142
10
104.57198705756733
20
-77.696303011824142
42
0.41421357110198487
10
105.07198705756736
20
-77.196302996922995
42
0.41421356237309503
10
104.57198705756736
20
-76.696302996922981
10
87.521987057567344
20
-76.696302996922995
42
0.41421356237308982
10
87.021987057567358
20
-77.196302996922995
42
0.41421357110199525
0
LWPOLYLINE
5
233
100
AcDbEntity
8
0
100
AcDbPolyline
90
6
70
1
43
0.0
10
118.85948705756729
20
-131.79630301182422
10
101.80948705756734
20
-131.79630301182422
42
0.41421357110197449
10
101.30948705756734
20
-132.29630302672533
42
0.41421356237309503
10
101.80948705756734
20
-132.79630302672535
10
118.85948705756731
20
-132.79630302672533
42
0.4142135623730846
10
119.35948705756729
20
-132.29630302672535
42
0.41421357110198487
0
LWPOLYLINE
5
234
100
AcDbEntity
8
0
100
AcDbPolyline
90
6
70
1
43
0.0
10
195.05948705756731
20
-131.79630301182422
10
178.0094870575673
20
-131.79630301182422
42
0.41421357110197449
10
177.5094870575673
20
-132.29630302672533
42
0.41421356237309503
10
178.0094870575673
20
-132.79630302672535
10
195.05948705756731
20
-132.79630302672533
42
0.4142135623730846
10
195.55948705756731
20
-132.29630302672535
42
0.41421357110198487
0
LWPOLYLINE
5
235
100
AcDbEntity
8
0
100
AcDbPolyline
90
10
70
1
43
0.0
10
284.52198705756734
20
-77.696303011824142
42
-0.4142135623730222
10
285.02198705756734
20
-78.196303011824156
10
285.02198705756734
20
-84.696303011824142
42
0.41421357110198487
10
285.52198707246851
20
-85.196303011824156
42
0.4142135623730846
10
286.02198707246856
20
-84.69630301182417
10
286.02198707246851
20
-77.196302996922995
42
0.41421356237309503
10
285.52198707246851
20
-76.696302996922981
10
278.02198705756734
20
-76.696302996923009
42
0.41421356237308982
10
277.52198705756734
20
-77.196302996922995
42
0.41421357110199009
10
278.02198705756734
20
-77.696303011824142
0
LWPOLYLINE
5
236
100
AcDbEntity
8
0
100
AcDbPolyline
90
10
70
1
43
0.0
10
271.73448707246854
20
-95.19630302672536
42
-0.41421356237310542
10
272.23448707246854
20
-94.696303026725346
10
276.02198705756734
20
-94.696303026725332
42
0.4142135623730846
10
276.52198705756734
20
-94.196303026725332
42
0.41421357110198487
10
276.02198705756734
20
-93.696303011824142
10
271.23448705756738
20
-93.696303011824199
42
0.41421356237309503
10
270.73448705756732
20
-94.196303011824213
10
270.73448705756738
20
-103.74630301182415
42
0.41421356237309503
10
271.23448705756738
20
-104.24630301182417
42
0.41421357110198487
10
271.73448707246848
20
-103.74630301182415
0
LWPOLYLINE
5
237
100
AcDbEntity
8
0
100
AcDbPolyline
90
10
70
1
43
0.0
10
270.73448705756738
20
-112.24630301182417
42
-0.4142135623730846
10
270.23448705756732
20
-112.74630301182418
10
263.73448705756738
20
-112.74630301182415
42
0.41421356237309503
10
263.23448705756738
20
-113.24630301182417
42
0.41421357110198487
10
263.73448705756738
20
-113.74630302672536
10
271.23448707246848
20
-113.7463030267253
42
0.41421356237309503
10
271.73448707246848
20
-113.2463030267253
10
271.73448707246854
20
-105.74630301182418
42
0.41421356237309503
10
271.23448707246848
20
-105.24630301182418
42
0.41421357110199525
10
270.73448705756732
20
-105.74630301182421
0
LWPOLYLINE
5
238
100
AcDbEntity
8
0
100
AcDbPolyline
90
10
70
1
43
0.0
10
74.259487057567327
20
-131.79630301182419
42
-0.41421356237310542
10
73.759487057567327
20
-131.29630301182419
10
73.759487057567327
20
-124.79630301182422
42
0.41421356237309503
10
73.259487057567327
20
-124.29630301182421
42
0.41421357110197449
10
72.75948704266618
20
-124.79630301182418
10
72.759487042666166
20
-132.29630302672533
42
0.41421356237309503
10
73.259487042666166
20
-132.79630302672535
10
80.759487057567313
20
-132.79630302672533
42
0.41421357110197449
10
81.259487057567327
20
-132.29630301182419
42
0.41421356237309503
10
80.759487057567313
20
-131.79630301182422
0
LWPOLYLINE
5
239
100
AcDbEntity
8
0
100
AcDbPolyline
90
10
70
1
43
0.0
10
64.734487057567335
20
-112.74630301182415
42
-0.41421356237308982
10
64.234487057567335
20
-112.24630301182415
10
64.234487057567321
20
-105.74630301182418
42
0.41421356237309503
10
63.734487057567328
20
-105.24630301182418
42
0.41421357110199009
10
63.234487042666174
20
-105.74630301182418
10
63.234487042666174
20
-113.24630302672531
42
0.41421356237309503
10
63.734487042666174
20
-113.74630302672536
10
71.234487057567321
20
-113.74630302672531
42
0.41421357110198487
10
71.734487057567321
20
-113.24630301182417
42
0.41421356237309503
10
71.234487057567321
20
-112.74630301182418
0
LWPOLYLINE
5
240
100
AcDbEntity
8
0
100
AcDbPolyline
90
14
70
1
43
0.0
10
62.734487042666174
20
-94.69630302672536
42
-0.414213562373069
10
63.234487042666174
20
-95.196303026725374
10
63.234487042666181
20
-103.74630301182415
42
0.41421356237309503
10
63.734487042666181
20
-104.24630301182417
42
0.41421357110199009
10
64.234487057567335
20
-103.74630301182415
10
64.234487057567321
20
-94.196303011824199
42
0.41421356237309503
10
63.734487057567328
20
-93.696303011824142
10
59.971987057567333
20
-93.696303011824185
42
-0.41421356237310025
10
59.471987057567333
20
-93.196303011824156
10
59.471987057567326
20
-86.69630301182417
42
0.41421356237309503
10
58.971987057567326
20
-86.19630301182417
42
0.41421357110199009
10
58.471987042666171
20
-86.69630301182417
10
58.471987042666179
20
-94.196303026725317
42
0.41421356237309503
10
58.971987042666179
20
-94.696303026725332
0
LWPOLYLINE
5
241
100
AcDbEntity
8
0
100
AcDbPolyline
90
10
70
1
43
0.0
10
59.47198705756734
20
-78.196303011824156
42
-0.41421356237309503
10
59.97198705756734
20
-77.696303011824156
10
66.471987057567333
20
-77.696303011824142
42
0.41421357110198487
10
66.971987057567318
20
-77.196302996922995
42
0.41421356237309503
10
66.471987057567333
20
-76.696302996922981
10
58.971987042666171
20
-76.696302996923009
42
0.4142135623730846
10
58.471987042666171
20
-77.196302996922995
10
58.471987042666179
20
-84.696303011824142
42
0.41421357110199009
10
58.971987057567333
20
-85.196303011824156
42
0.41421356237309503
10
59.471987057567333
20
-84.696303011824142
0
LWPOLYLINE
5
242
100
AcDbEntity
8
0
100
AcDbPolyline
90
10
70
1
43
0.0
10
285.02198705756734
20
-93.19630301182417
42
-0.41421356237310542
10
284.52198705756734
20
-93.696303011824185
10
278.02198705756734
20
-93.696303011824185
42
0.4142135623730846
10
277.52198705756734
20
-94.19630301182417
42
0.41421357110198487
10
278.02198705756734
20
-94.696303026725332
10
285.52198707246851
20
-94.696303026725332
42
0.41421356237309503
10
286.02198707246856
20
-94.196303026725317
10
286.02198707246851
20
-86.69630301182417
42
0.41421356237309503
10
285.52198707246851
20
-86.19630301182417
42
0.41421357110199525
10
285.0219870575674
20
-86.696303011824199
0
LWPOLYLINE
5
243
100
AcDbEntity
8
0
100
AcDbPolyline
90
4
70
1
43
0.0
10
319.50323705756733
20
-148.00030301182426
10
319.50323705756733
20
-61.740053011824145
42
0.99999999999999989
10
315.50323705756733
20
-61.740053011824116
10
315.50323705756733
20
-148.00030301182426
42
0.99999999999999989
0
LWPOLYLINE
5
244
100
AcDbEntity
8
0
100
AcDbPolyline
90
14
70
1
43
0.0
10
297.36623705756733
20
-118.29630301182418
10
297.36623705756733
20
-132.29630301182419
42
0.41421356237313667
10
297.86623705756733
20
-132.79630301182419
10
303.86623705756739
20
-132.79630301182419
42
0.41421356237312623
10
304.36623705756739
20
-132.29630301182419
10
304.36623705756733
20
-130.79630301182422
10
312.09698705756739
20
-130.79630301182419
42
0.41421356237309503
10
312.59698705756739
20
-130.29630301182419
10
312.59698705756739
20
-117.29630301182418
42
0.41421356237310542
10
312.09698705756739
20
-116.79630301182415
10
299.09698705756733
20
-116.79630301182416
42
0.41421356237313667
10
298.59698705756733
20
-117.29630301182418
10
298.59698705756733
20
-117.79630301182419
10
297.86623705756733
20
-117.79630301182419
42
0.41421356237312623
0
LWPOLYLINE
5
245
100
AcDbEntity
8
0
100
AcDbPolyline
90
14
70
1
43
0.0
10
273.4902370575673
20
-130.79630301182419
10
273.4902370575673
20
-132.29630301182419
42
0.41421356237310542
10
273.99023705756736
20
-132.79630301182419
10
279.9902370575673
20
-132.79630301182419
42
0.41421356237312623
10
280.4902370575673
20
-132.29630301182419
10
280.4902370575673
20
-130.79630301182422
10
295.42823705756734
20
-130.79630301182419
42
0.41421356237309503
10
295.92823705756734
20
-130.29630301182419
10
295.92823705756734
20
-117.29630301182418
42
0.41421356237310542
10
295.42823705756734
20
-116.79630301182415
10
272.90323705756737
20
-116.79630301182416
42
0.41421356237309503
10
272.40323705756731
20
-117.29630301182416
10
272.40323705756731
20
-130.29630301182419
42
0.41421356237310542
10
272.90323705756737
20
-130.79630301182422
0
LWPOLYLINE
5
246
100
AcDbEntity
8
0
100
AcDbPolyline
90
10
70
1
43
0.0
10
262.20948707246851
20
-122.79630301182416
10
262.20948707246851
20
-113.81238291715005
42
-0.056077475865643392
10
262.22198706501791
20
-113.70128051962564
42
0.056077475865615914
10
262.23448705756738
20
-113.59017812210124
10
262.23448705756732
20
-113.24630301182417
42
0.41421356237309503
10
261.73448705756732
20
-112.74630301182418
10
261.70948705756734
20
-112.74630301182415
42
0.41421356237310542
10
261.20948705756734
20
-113.24630301182418
10
261.20948705756734
20
-122.79630301182416
42
0.41421357110198487
10
261.70948707246851
20
-123.29630301182418
42
0.41421356237309503
0
LWPOLYLINE
5
247
100
AcDbEntity
8
0
100
AcDbPolyline
90
4
70
1
43
0.0
10
333.48136205756731
20
-128.79630301182414
10
333.48136205756731
20
-118.79630301182418
42
0.99999999999999989
10
327.48136205756737
20
-118.79630301182422
10
327.48136205756737
20
-128.79630301182419
42
0.99999999999999989
0
LWPOLYLINE
5
248
100
AcDbEntity
8
0
100
AcDbPolyline
90
4
70
1
43
0.0
10
363.29548705756736
20
-118.79630301182418
42
-0.99999999999999989
10
369.2954870575673
20
-118.79630301182418
10
369.2954870575673
20
-128.79630301182419
42
-0.99999999999999989
10
363.29548705756736
20
-128.79630301182419
0
LWPOLYLINE
5
249
100
AcDbEntity
8
0
100
AcDbPolyline
90
4
70
1
43
0.0
10
173.33611205756736
20
-55.440053011824176
10
206.02789330756733
20
-55.440053011824169
42
0.99999999999999989
10
206.02789330756733
20
-54.040053011824163
10
173.33611205756736
20
-54.04005301182417
42
0.99999999999999989
0
LWPOLYLINE
5
250
100
AcDbEntity
8
0
100
AcDbPolyline
90
4
70
1
43
0.0
10
170.93611205756733
20
-54.04005301182417
10
138.24433080756737
20
-54.040053011824185
42
0.99999999999999989
10
138.24433080756737
20
-55.44005301182419
10
170.93611205756733
20
-55.440053011824197
42
0.99999999999999989
0
LWPOLYLINE
5
251
100
AcDbEntity
8
0
100
AcDbPolyline
90
4
70
1
43
0.0
10
208.42789330756733
20
-55.440053011824169
10
276.06145580756731
20
-55.440053011824162
42
0.99999999999999989
10
276.06145580756731
20
-54.040053011824149
10
208.42789330756733
20
-54.040053011824156
42
0.99999999999999989
0
LWPOLYLINE
5
252
100
AcDbEntity
8
0
100
AcDbPolyline
90
4
70
1
43
0.0
10
135.84433080756733
20
-54.040053011824185
10
68.210768307567335
20
-54.040053011824199
42
0.99999999999999989
10
68.210768307567349
20
-55.440053011824197
10
135.84433080756733
20
-55.440053011824197
42
0.99999999999999989
0
LWPOLYLINE
5
253
100
AcDbEntity
8
0
100
AcDbPolyline
90
4
70
1
43
0.0
10
311.50323705756733
20
-54.040053011824142
10
278.46145580756735
20
-54.040053011824149
42
0.99999999999999989
10
278.46145580756735
20
-55.440053011824162
10
311.50323705756728
20
-55.440053011824162
42
0.99999999999999989
0
LWPOLYLINE
5
254
100
AcDbEntity
8
0
100
AcDbPolyline
90
8
70
1
43
0.0
10
111.84073705756731
20
-148.84630301182423
10
118.09698705756733
20
-148.84630301182423
42
0.41421356237306384
10
118.59698705756735
20
-148.3463030118242
10
118.59698705756735
20
-134.3463030118242
42
0.41421356237307422
10
118.09698705756733
20
-133.8463030118242
10
111.84073705756732
20
-133.84630301182423
42
0.4142135623730846
10
111.34073705756734
20
-134.3463030118242
10
111.34073705756731
20
-148.3463030118242
42
0.41421356237309503
0
LWPOLYLINE
5
255
100
AcDbEntity
8
0
100
AcDbPolyline
90
12
70
1
43
0.0
10
232.89723705756728
20
-148.3463030118242
10
232.89723705756731
20
-135.84630301182418
10
232.89698705756734
20
-135.8463030118242
10
232.89698705756734
20
-134.3463030118242
42
0.41421356237309503
10
232.39698705756734
20
-133.8463030118242
10
226.39698705756732
20
-133.8463030118242
42
0.4142135623730846
10
225.89698705756732
20
-134.3463030118242
10
225.89698705756734
20
-135.84630301182418
10
225.89723705756734
20
-135.84630301182418
10
225.89723705756734
20
-148.3463030118242
42
0.41421356237309503
10
226.39723705756734
20
-148.84630301182423
10
232.39723705756731
20
-148.84630301182423
42
0.41421356237309503
0
ENDSEC
0
SECTION
2
OBJECTS
0
DICTIONARY
5
C
100
AcDbDictionary
3
ACAD_GROUP
350
D
3
ACAD_MLINESTYLE
350
17
0
DICTIONARY
5
D
100
AcDbDictionary
0
DICTIONARY
5
1A
330
C
100
AcDbDictionary
0
DICTIONARY
5
17
100
AcDbDictionary
0
ENDSEC
0
EOF
